<?xml version="1.0" encoding="UTF-8"?>
<svg xmlns="http://www.w3.org/2000/svg" width="210mm" height="297mm" viewBox="0 0 210 297">
<title>Stencil cut-outs</title>
<rect width="210" height="297" fill="#fff"/>
<text x="12" y="16" font-family="Helvetica,Arial,sans-serif" font-size="4.6" fill="#1f2a44" text-anchor="start" font-weight="700">Stencil cut-outs</text>
<text x="12" y="21.5" font-family="Helvetica,Arial,sans-serif" font-size="3" fill="#9aa1ad" text-anchor="start">Cut out a card, tape it on thin clear plastic, and an adult cuts the black shapes through both. Lesson 08.3.</text>
<text x="146" y="16" font-family="Helvetica,Arial,sans-serif" font-size="3" fill="#9aa1ad" text-anchor="end">Name:</text>
<line x1="148" y1="16.6" x2="198" y2="16.6" stroke="#c9ced6" stroke-width="0.25"/>
<line x1="12" y1="287" x2="112" y2="287" stroke="#9aa1ad" stroke-width="0.35"/>
<line x1="12" y1="284.8" x2="12" y2="287" stroke="#9aa1ad" stroke-width="0.3"/>
<line x1="22" y1="285.8" x2="22" y2="287" stroke="#9aa1ad" stroke-width="0.3"/>
<line x1="32" y1="285.8" x2="32" y2="287" stroke="#9aa1ad" stroke-width="0.3"/>
<line x1="42" y1="285.8" x2="42" y2="287" stroke="#9aa1ad" stroke-width="0.3"/>
<line x1="52" y1="285.8" x2="52" y2="287" stroke="#9aa1ad" stroke-width="0.3"/>
<line x1="62" y1="284.8" x2="62" y2="287" stroke="#9aa1ad" stroke-width="0.3"/>
<line x1="72" y1="285.8" x2="72" y2="287" stroke="#9aa1ad" stroke-width="0.3"/>
<line x1="82" y1="285.8" x2="82" y2="287" stroke="#9aa1ad" stroke-width="0.3"/>
<line x1="92" y1="285.8" x2="92" y2="287" stroke="#9aa1ad" stroke-width="0.3"/>
<line x1="102" y1="285.8" x2="102" y2="287" stroke="#9aa1ad" stroke-width="0.3"/>
<line x1="112" y1="284.8" x2="112" y2="287" stroke="#9aa1ad" stroke-width="0.3"/>
<text x="115" y="287.8" font-family="Helvetica,Arial,sans-serif" font-size="2.5" fill="#9aa1ad" text-anchor="start">Must measure 10 cm. If not, print at 100% ("Actual size").</text>
<rect x="12" y="31" width="89" height="70" fill="none" stroke="#9aa1ad" stroke-width="0.3"/>
<line x1="12" y1="31" x2="101" y2="31" stroke="#ffffff" stroke-width="0.32" stroke-dasharray="2 1.4"/>
<line x1="101" y1="31" x2="101" y2="101" stroke="#ffffff" stroke-width="0.32" stroke-dasharray="2 1.4"/>
<line x1="101" y1="101" x2="12" y2="101" stroke="#ffffff" stroke-width="0.32" stroke-dasharray="2 1.4"/>
<line x1="12" y1="101" x2="12" y2="31" stroke="#ffffff" stroke-width="0.32" stroke-dasharray="2 1.4"/>
<text x="15" y="36" font-family="Helvetica,Arial,sans-serif" font-size="3" fill="#1f2a44" text-anchor="start" font-weight="700">A  Scales</text>
<path d="M30 43L29.85 44.16L29.4 45.25L28.68 46.18L27.75 46.9L26.66 47.35L25.5 47.5L24.34 47.35L23.25 46.9L22.32 46.18L21.6 45.25L21.15 44.16L21 43L21 43Z" fill="#1f2a44" stroke="#1f2a44" stroke-width="0.45" stroke-linecap="round" stroke-linejoin="round"/>
<path d="M41 43L40.85 44.16L40.4 45.25L39.68 46.18L38.75 46.9L37.66 47.35L36.5 47.5L35.34 47.35L34.25 46.9L33.32 46.18L32.6 45.25L32.15 44.16L32 43L32 43Z" fill="#1f2a44" stroke="#1f2a44" stroke-width="0.45" stroke-linecap="round" stroke-linejoin="round"/>
<path d="M52 43L51.85 44.16L51.4 45.25L50.68 46.18L49.75 46.9L48.66 47.35L47.5 47.5L46.34 47.35L45.25 46.9L44.32 46.18L43.6 45.25L43.15 44.16L43 43L43 43Z" fill="#1f2a44" stroke="#1f2a44" stroke-width="0.45" stroke-linecap="round" stroke-linejoin="round"/>
<path d="M63 43L62.85 44.16L62.4 45.25L61.68 46.18L60.75 46.9L59.66 47.35L58.5 47.5L57.34 47.35L56.25 46.9L55.32 46.18L54.6 45.25L54.15 44.16L54 43L54 43Z" fill="#1f2a44" stroke="#1f2a44" stroke-width="0.45" stroke-linecap="round" stroke-linejoin="round"/>
<path d="M74 43L73.85 44.16L73.4 45.25L72.68 46.18L71.75 46.9L70.66 47.35L69.5 47.5L68.34 47.35L67.25 46.9L66.32 46.18L65.6 45.25L65.15 44.16L65 43L65 43Z" fill="#1f2a44" stroke="#1f2a44" stroke-width="0.45" stroke-linecap="round" stroke-linejoin="round"/>
<path d="M85 43L84.85 44.16L84.4 45.25L83.68 46.18L82.75 46.9L81.66 47.35L80.5 47.5L79.34 47.35L78.25 46.9L77.32 46.18L76.6 45.25L76.15 44.16L76 43L76 43Z" fill="#1f2a44" stroke="#1f2a44" stroke-width="0.45" stroke-linecap="round" stroke-linejoin="round"/>
<path d="M35.5 50L35.35 51.16L34.9 52.25L34.18 53.18L33.25 53.9L32.16 54.35L31 54.5L29.84 54.35L28.75 53.9L27.82 53.18L27.1 52.25L26.65 51.16L26.5 50L26.5 50Z" fill="#1f2a44" stroke="#1f2a44" stroke-width="0.45" stroke-linecap="round" stroke-linejoin="round"/>
<path d="M46.5 50L46.35 51.16L45.9 52.25L45.18 53.18L44.25 53.9L43.16 54.35L42 54.5L40.84 54.35L39.75 53.9L38.82 53.18L38.1 52.25L37.65 51.16L37.5 50L37.5 50Z" fill="#1f2a44" stroke="#1f2a44" stroke-width="0.45" stroke-linecap="round" stroke-linejoin="round"/>
<path d="M57.5 50L57.35 51.16L56.9 52.25L56.18 53.18L55.25 53.9L54.16 54.35L53 54.5L51.84 54.35L50.75 53.9L49.82 53.18L49.1 52.25L48.65 51.16L48.5 50L48.5 50Z" fill="#1f2a44" stroke="#1f2a44" stroke-width="0.45" stroke-linecap="round" stroke-linejoin="round"/>
<path d="M68.5 50L68.35 51.16L67.9 52.25L67.18 53.18L66.25 53.9L65.16 54.35L64 54.5L62.84 54.35L61.75 53.9L60.82 53.18L60.1 52.25L59.65 51.16L59.5 50L59.5 50Z" fill="#1f2a44" stroke="#1f2a44" stroke-width="0.45" stroke-linecap="round" stroke-linejoin="round"/>
<path d="M79.5 50L79.35 51.16L78.9 52.25L78.18 53.18L77.25 53.9L76.16 54.35L75 54.5L73.84 54.35L72.75 53.9L71.82 53.18L71.1 52.25L70.65 51.16L70.5 50L70.5 50Z" fill="#1f2a44" stroke="#1f2a44" stroke-width="0.45" stroke-linecap="round" stroke-linejoin="round"/>
<path d="M30 57L29.85 58.16L29.4 59.25L28.68 60.18L27.75 60.9L26.66 61.35L25.5 61.5L24.34 61.35L23.25 60.9L22.32 60.18L21.6 59.25L21.15 58.16L21 57L21 57Z" fill="#1f2a44" stroke="#1f2a44" stroke-width="0.45" stroke-linecap="round" stroke-linejoin="round"/>
<path d="M41 57L40.85 58.16L40.4 59.25L39.68 60.18L38.75 60.9L37.66 61.35L36.5 61.5L35.34 61.35L34.25 60.9L33.32 60.18L32.6 59.25L32.15 58.16L32 57L32 57Z" fill="#1f2a44" stroke="#1f2a44" stroke-width="0.45" stroke-linecap="round" stroke-linejoin="round"/>
<path d="M52 57L51.85 58.16L51.4 59.25L50.68 60.18L49.75 60.9L48.66 61.35L47.5 61.5L46.34 61.35L45.25 60.9L44.32 60.18L43.6 59.25L43.15 58.16L43 57L43 57Z" fill="#1f2a44" stroke="#1f2a44" stroke-width="0.45" stroke-linecap="round" stroke-linejoin="round"/>
<path d="M63 57L62.85 58.16L62.4 59.25L61.68 60.18L60.75 60.9L59.66 61.35L58.5 61.5L57.34 61.35L56.25 60.9L55.32 60.18L54.6 59.25L54.15 58.16L54 57L54 57Z" fill="#1f2a44" stroke="#1f2a44" stroke-width="0.45" stroke-linecap="round" stroke-linejoin="round"/>
<path d="M74 57L73.85 58.16L73.4 59.25L72.68 60.18L71.75 60.9L70.66 61.35L69.5 61.5L68.34 61.35L67.25 60.9L66.32 60.18L65.6 59.25L65.15 58.16L65 57L65 57Z" fill="#1f2a44" stroke="#1f2a44" stroke-width="0.45" stroke-linecap="round" stroke-linejoin="round"/>
<path d="M85 57L84.85 58.16L84.4 59.25L83.68 60.18L82.75 60.9L81.66 61.35L80.5 61.5L79.34 61.35L78.25 60.9L77.32 60.18L76.6 59.25L76.15 58.16L76 57L76 57Z" fill="#1f2a44" stroke="#1f2a44" stroke-width="0.45" stroke-linecap="round" stroke-linejoin="round"/>
<path d="M35.5 64L35.35 65.16L34.9 66.25L34.18 67.18L33.25 67.9L32.16 68.35L31 68.5L29.84 68.35L28.75 67.9L27.82 67.18L27.1 66.25L26.65 65.16L26.5 64L26.5 64Z" fill="#1f2a44" stroke="#1f2a44" stroke-width="0.45" stroke-linecap="round" stroke-linejoin="round"/>
<path d="M46.5 64L46.35 65.16L45.9 66.25L45.18 67.18L44.25 67.9L43.16 68.35L42 68.5L40.84 68.35L39.75 67.9L38.82 67.18L38.1 66.25L37.65 65.16L37.5 64L37.5 64Z" fill="#1f2a44" stroke="#1f2a44" stroke-width="0.45" stroke-linecap="round" stroke-linejoin="round"/>
<path d="M57.5 64L57.35 65.16L56.9 66.25L56.18 67.18L55.25 67.9L54.16 68.35L53 68.5L51.84 68.35L50.75 67.9L49.82 67.18L49.1 66.25L48.65 65.16L48.5 64L48.5 64Z" fill="#1f2a44" stroke="#1f2a44" stroke-width="0.45" stroke-linecap="round" stroke-linejoin="round"/>
<path d="M68.5 64L68.35 65.16L67.9 66.25L67.18 67.18L66.25 67.9L65.16 68.35L64 68.5L62.84 68.35L61.75 67.9L60.82 67.18L60.1 66.25L59.65 65.16L59.5 64L59.5 64Z" fill="#1f2a44" stroke="#1f2a44" stroke-width="0.45" stroke-linecap="round" stroke-linejoin="round"/>
<path d="M79.5 64L79.35 65.16L78.9 66.25L78.18 67.18L77.25 67.9L76.16 68.35L75 68.5L73.84 68.35L72.75 67.9L71.82 67.18L71.1 66.25L70.65 65.16L70.5 64L70.5 64Z" fill="#1f2a44" stroke="#1f2a44" stroke-width="0.45" stroke-linecap="round" stroke-linejoin="round"/>
<path d="M30 71L29.85 72.16L29.4 73.25L28.68 74.18L27.75 74.9L26.66 75.35L25.5 75.5L24.34 75.35L23.25 74.9L22.32 74.18L21.6 73.25L21.15 72.16L21 71L21 71Z" fill="#1f2a44" stroke="#1f2a44" stroke-width="0.45" stroke-linecap="round" stroke-linejoin="round"/>
<path d="M41 71L40.85 72.16L40.4 73.25L39.68 74.18L38.75 74.9L37.66 75.35L36.5 75.5L35.34 75.35L34.25 74.9L33.32 74.18L32.6 73.25L32.15 72.16L32 71L32 71Z" fill="#1f2a44" stroke="#1f2a44" stroke-width="0.45" stroke-linecap="round" stroke-linejoin="round"/>
<path d="M52 71L51.85 72.16L51.4 73.25L50.68 74.18L49.75 74.9L48.66 75.35L47.5 75.5L46.34 75.35L45.25 74.9L44.32 74.18L43.6 73.25L43.15 72.16L43 71L43 71Z" fill="#1f2a44" stroke="#1f2a44" stroke-width="0.45" stroke-linecap="round" stroke-linejoin="round"/>
<path d="M63 71L62.85 72.16L62.4 73.25L61.68 74.18L60.75 74.9L59.66 75.35L58.5 75.5L57.34 75.35L56.25 74.9L55.32 74.18L54.6 73.25L54.15 72.16L54 71L54 71Z" fill="#1f2a44" stroke="#1f2a44" stroke-width="0.45" stroke-linecap="round" stroke-linejoin="round"/>
<path d="M74 71L73.85 72.16L73.4 73.25L72.68 74.18L71.75 74.9L70.66 75.35L69.5 75.5L68.34 75.35L67.25 74.9L66.32 74.18L65.6 73.25L65.15 72.16L65 71L65 71Z" fill="#1f2a44" stroke="#1f2a44" stroke-width="0.45" stroke-linecap="round" stroke-linejoin="round"/>
<path d="M85 71L84.85 72.16L84.4 73.25L83.68 74.18L82.75 74.9L81.66 75.35L80.5 75.5L79.34 75.35L78.25 74.9L77.32 74.18L76.6 73.25L76.15 72.16L76 71L76 71Z" fill="#1f2a44" stroke="#1f2a44" stroke-width="0.45" stroke-linecap="round" stroke-linejoin="round"/>
<path d="M35.5 78L35.35 79.16L34.9 80.25L34.18 81.18L33.25 81.9L32.16 82.35L31 82.5L29.84 82.35L28.75 81.9L27.82 81.18L27.1 80.25L26.65 79.16L26.5 78L26.5 78Z" fill="#1f2a44" stroke="#1f2a44" stroke-width="0.45" stroke-linecap="round" stroke-linejoin="round"/>
<path d="M46.5 78L46.35 79.16L45.9 80.25L45.18 81.18L44.25 81.9L43.16 82.35L42 82.5L40.84 82.35L39.75 81.9L38.82 81.18L38.1 80.25L37.65 79.16L37.5 78L37.5 78Z" fill="#1f2a44" stroke="#1f2a44" stroke-width="0.45" stroke-linecap="round" stroke-linejoin="round"/>
<path d="M57.5 78L57.35 79.16L56.9 80.25L56.18 81.18L55.25 81.9L54.16 82.35L53 82.5L51.84 82.35L50.75 81.9L49.82 81.18L49.1 80.25L48.65 79.16L48.5 78L48.5 78Z" fill="#1f2a44" stroke="#1f2a44" stroke-width="0.45" stroke-linecap="round" stroke-linejoin="round"/>
<path d="M68.5 78L68.35 79.16L67.9 80.25L67.18 81.18L66.25 81.9L65.16 82.35L64 82.5L62.84 82.35L61.75 81.9L60.82 81.18L60.1 80.25L59.65 79.16L59.5 78L59.5 78Z" fill="#1f2a44" stroke="#1f2a44" stroke-width="0.45" stroke-linecap="round" stroke-linejoin="round"/>
<path d="M79.5 78L79.35 79.16L78.9 80.25L78.18 81.18L77.25 81.9L76.16 82.35L75 82.5L73.84 82.35L72.75 81.9L71.82 81.18L71.1 80.25L70.65 79.16L70.5 78L70.5 78Z" fill="#1f2a44" stroke="#1f2a44" stroke-width="0.45" stroke-linecap="round" stroke-linejoin="round"/>
<path d="M30 85L29.85 86.16L29.4 87.25L28.68 88.18L27.75 88.9L26.66 89.35L25.5 89.5L24.34 89.35L23.25 88.9L22.32 88.18L21.6 87.25L21.15 86.16L21 85L21 85Z" fill="#1f2a44" stroke="#1f2a44" stroke-width="0.45" stroke-linecap="round" stroke-linejoin="round"/>
<path d="M41 85L40.85 86.16L40.4 87.25L39.68 88.18L38.75 88.9L37.66 89.35L36.5 89.5L35.34 89.35L34.25 88.9L33.32 88.18L32.6 87.25L32.15 86.16L32 85L32 85Z" fill="#1f2a44" stroke="#1f2a44" stroke-width="0.45" stroke-linecap="round" stroke-linejoin="round"/>
<path d="M52 85L51.85 86.16L51.4 87.25L50.68 88.18L49.75 88.9L48.66 89.35L47.5 89.5L46.34 89.35L45.25 88.9L44.32 88.18L43.6 87.25L43.15 86.16L43 85L43 85Z" fill="#1f2a44" stroke="#1f2a44" stroke-width="0.45" stroke-linecap="round" stroke-linejoin="round"/>
<path d="M63 85L62.85 86.16L62.4 87.25L61.68 88.18L60.75 88.9L59.66 89.35L58.5 89.5L57.34 89.35L56.25 88.9L55.32 88.18L54.6 87.25L54.15 86.16L54 85L54 85Z" fill="#1f2a44" stroke="#1f2a44" stroke-width="0.45" stroke-linecap="round" stroke-linejoin="round"/>
<path d="M74 85L73.85 86.16L73.4 87.25L72.68 88.18L71.75 88.9L70.66 89.35L69.5 89.5L68.34 89.35L67.25 88.9L66.32 88.18L65.6 87.25L65.15 86.16L65 85L65 85Z" fill="#1f2a44" stroke="#1f2a44" stroke-width="0.45" stroke-linecap="round" stroke-linejoin="round"/>
<path d="M85 85L84.85 86.16L84.4 87.25L83.68 88.18L82.75 88.9L81.66 89.35L80.5 89.5L79.34 89.35L78.25 88.9L77.32 88.18L76.6 87.25L76.15 86.16L76 85L76 85Z" fill="#1f2a44" stroke="#1f2a44" stroke-width="0.45" stroke-linecap="round" stroke-linejoin="round"/>
<rect x="109" y="31" width="89" height="70" fill="none" stroke="#9aa1ad" stroke-width="0.3"/>
<line x1="109" y1="31" x2="198" y2="31" stroke="#ffffff" stroke-width="0.32" stroke-dasharray="2 1.4"/>
<line x1="198" y1="31" x2="198" y2="101" stroke="#ffffff" stroke-width="0.32" stroke-dasharray="2 1.4"/>
<line x1="198" y1="101" x2="109" y2="101" stroke="#ffffff" stroke-width="0.32" stroke-dasharray="2 1.4"/>
<line x1="109" y1="101" x2="109" y2="31" stroke="#ffffff" stroke-width="0.32" stroke-dasharray="2 1.4"/>
<text x="112" y="36" font-family="Helvetica,Arial,sans-serif" font-size="3" fill="#1f2a44" text-anchor="start" font-weight="700">B  Stars</text>
<path d="M131.6 51.9L133.72 56.99L139.21 57.43L135.02 61.01L136.3 66.37L131.6 63.5L126.9 66.37L128.18 61.01L123.99 57.43L129.48 56.99L131.6 51.9Z" fill="#1f2a44" stroke="#1f2a44" stroke-width="0.45" stroke-linecap="round" stroke-linejoin="round"/>
<path d="M153.5 52.2L154.82 55.38L158.26 55.65L155.64 57.9L156.44 61.25L153.5 59.45L150.56 61.25L151.36 57.9L148.74 55.65L152.18 55.38L153.5 52.2Z" fill="#1f2a44" stroke="#1f2a44" stroke-width="0.45" stroke-linecap="round" stroke-linejoin="round"/>
<path d="M173.94 55.6L175.79 60.05L180.6 60.44L176.94 63.57L178.05 68.26L173.94 65.75L169.83 68.26L170.94 63.57L167.28 60.44L172.09 60.05L173.94 55.6Z" fill="#1f2a44" stroke="#1f2a44" stroke-width="0.45" stroke-linecap="round" stroke-linejoin="round"/>
<path d="M142.55 77L143.74 79.86L146.83 80.11L144.48 82.13L145.2 85.14L142.55 83.53L139.9 85.14L140.62 82.13L138.27 80.11L141.36 79.86L142.55 77Z" fill="#1f2a44" stroke="#1f2a44" stroke-width="0.45" stroke-linecap="round" stroke-linejoin="round"/>
<path d="M164.45 77.12L166.04 80.94L170.16 81.27L167.02 83.95L167.98 87.97L164.45 85.82L160.92 87.97L161.88 83.95L158.74 81.27L162.86 80.94L164.45 77.12Z" fill="#1f2a44" stroke="#1f2a44" stroke-width="0.45" stroke-linecap="round" stroke-linejoin="round"/>
<rect x="12" y="109" width="89" height="70" fill="none" stroke="#9aa1ad" stroke-width="0.3"/>
<line x1="12" y1="109" x2="101" y2="109" stroke="#ffffff" stroke-width="0.32" stroke-dasharray="2 1.4"/>
<line x1="101" y1="109" x2="101" y2="179" stroke="#ffffff" stroke-width="0.32" stroke-dasharray="2 1.4"/>
<line x1="101" y1="179" x2="12" y2="179" stroke="#ffffff" stroke-width="0.32" stroke-dasharray="2 1.4"/>
<line x1="12" y1="179" x2="12" y2="109" stroke="#ffffff" stroke-width="0.32" stroke-dasharray="2 1.4"/>
<text x="15" y="114" font-family="Helvetica,Arial,sans-serif" font-size="3" fill="#1f2a44" text-anchor="start" font-weight="700">C  Lace edge</text>
<path d="M30 125L29.83 126.29L29.33 127.5L28.54 128.54L27.5 129.33L26.29 129.83L25 130L23.71 129.83L22.5 129.33L21.46 128.54L20.67 127.5L20.17 126.29L20 125L20 125Z" fill="#1f2a44" stroke="#1f2a44" stroke-width="0.45" stroke-linecap="round" stroke-linejoin="round"/>
<circle cx="25" cy="134" r="1.4" fill="#1f2a44"/>
<circle cx="30.75" cy="122" r="1" fill="#1f2a44"/>
<path d="M41.5 125L41.33 126.29L40.83 127.5L40.04 128.54L39 129.33L37.79 129.83L36.5 130L35.21 129.83L34 129.33L32.96 128.54L32.17 127.5L31.67 126.29L31.5 125L31.5 125Z" fill="#1f2a44" stroke="#1f2a44" stroke-width="0.45" stroke-linecap="round" stroke-linejoin="round"/>
<circle cx="36.5" cy="134" r="1.4" fill="#1f2a44"/>
<circle cx="42.25" cy="122" r="1" fill="#1f2a44"/>
<path d="M53 125L52.83 126.29L52.33 127.5L51.54 128.54L50.5 129.33L49.29 129.83L48 130L46.71 129.83L45.5 129.33L44.46 128.54L43.67 127.5L43.17 126.29L43 125L43 125Z" fill="#1f2a44" stroke="#1f2a44" stroke-width="0.45" stroke-linecap="round" stroke-linejoin="round"/>
<circle cx="48" cy="134" r="1.4" fill="#1f2a44"/>
<circle cx="53.75" cy="122" r="1" fill="#1f2a44"/>
<path d="M64.5 125L64.33 126.29L63.83 127.5L63.04 128.54L62 129.33L60.79 129.83L59.5 130L58.21 129.83L57 129.33L55.96 128.54L55.17 127.5L54.67 126.29L54.5 125L54.5 125Z" fill="#1f2a44" stroke="#1f2a44" stroke-width="0.45" stroke-linecap="round" stroke-linejoin="round"/>
<circle cx="59.5" cy="134" r="1.4" fill="#1f2a44"/>
<circle cx="65.25" cy="122" r="1" fill="#1f2a44"/>
<path d="M76 125L75.83 126.29L75.33 127.5L74.54 128.54L73.5 129.33L72.29 129.83L71 130L69.71 129.83L68.5 129.33L67.46 128.54L66.67 127.5L66.17 126.29L66 125L66 125Z" fill="#1f2a44" stroke="#1f2a44" stroke-width="0.45" stroke-linecap="round" stroke-linejoin="round"/>
<circle cx="71" cy="134" r="1.4" fill="#1f2a44"/>
<circle cx="76.75" cy="122" r="1" fill="#1f2a44"/>
<path d="M87.5 125L87.33 126.29L86.83 127.5L86.04 128.54L85 129.33L83.79 129.83L82.5 130L81.21 129.83L80 129.33L78.96 128.54L78.17 127.5L77.67 126.29L77.5 125L77.5 125Z" fill="#1f2a44" stroke="#1f2a44" stroke-width="0.45" stroke-linecap="round" stroke-linejoin="round"/>
<circle cx="82.5" cy="134" r="1.4" fill="#1f2a44"/>
<circle cx="25" cy="167" r="2.2" fill="#1f2a44"/>
<circle cx="36.5" cy="167" r="2.2" fill="#1f2a44"/>
<circle cx="48" cy="167" r="2.2" fill="#1f2a44"/>
<circle cx="59.5" cy="167" r="2.2" fill="#1f2a44"/>
<circle cx="71" cy="167" r="2.2" fill="#1f2a44"/>
<circle cx="82.5" cy="167" r="2.2" fill="#1f2a44"/>
<text x="20" y="161" font-family="Helvetica,Arial,sans-serif" font-size="2.5" fill="#9aa1ad" text-anchor="start">small circles: use a hole punch</text>
<rect x="109" y="109" width="89" height="70" fill="none" stroke="#9aa1ad" stroke-width="0.3"/>
<line x1="109" y1="109" x2="198" y2="109" stroke="#ffffff" stroke-width="0.32" stroke-dasharray="2 1.4"/>
<line x1="198" y1="109" x2="198" y2="179" stroke="#ffffff" stroke-width="0.32" stroke-dasharray="2 1.4"/>
<line x1="198" y1="179" x2="109" y2="179" stroke="#ffffff" stroke-width="0.32" stroke-dasharray="2 1.4"/>
<line x1="109" y1="179" x2="109" y2="109" stroke="#ffffff" stroke-width="0.32" stroke-dasharray="2 1.4"/>
<text x="112" y="114" font-family="Helvetica,Arial,sans-serif" font-size="3" fill="#1f2a44" text-anchor="start" font-weight="700">D  Diamonds (fishnet look)</text>
<path d="M120.2 119L123.4 123.4L120.2 127.8L117 123.4Z" fill="#1f2a44" stroke="#1f2a44" stroke-width="0.45" stroke-linecap="round" stroke-linejoin="round"/>
<path d="M128.2 119L131.4 123.4L128.2 127.8L125 123.4Z" fill="#1f2a44" stroke="#1f2a44" stroke-width="0.45" stroke-linecap="round" stroke-linejoin="round"/>
<path d="M136.2 119L139.4 123.4L136.2 127.8L133 123.4Z" fill="#1f2a44" stroke="#1f2a44" stroke-width="0.45" stroke-linecap="round" stroke-linejoin="round"/>
<path d="M144.2 119L147.4 123.4L144.2 127.8L141 123.4Z" fill="#1f2a44" stroke="#1f2a44" stroke-width="0.45" stroke-linecap="round" stroke-linejoin="round"/>
<path d="M152.2 119L155.4 123.4L152.2 127.8L149 123.4Z" fill="#1f2a44" stroke="#1f2a44" stroke-width="0.45" stroke-linecap="round" stroke-linejoin="round"/>
<path d="M160.2 119L163.4 123.4L160.2 127.8L157 123.4Z" fill="#1f2a44" stroke="#1f2a44" stroke-width="0.45" stroke-linecap="round" stroke-linejoin="round"/>
<path d="M168.2 119L171.4 123.4L168.2 127.8L165 123.4Z" fill="#1f2a44" stroke="#1f2a44" stroke-width="0.45" stroke-linecap="round" stroke-linejoin="round"/>
<path d="M176.2 119L179.4 123.4L176.2 127.8L173 123.4Z" fill="#1f2a44" stroke="#1f2a44" stroke-width="0.45" stroke-linecap="round" stroke-linejoin="round"/>
<path d="M184.2 119L187.4 123.4L184.2 127.8L181 123.4Z" fill="#1f2a44" stroke="#1f2a44" stroke-width="0.45" stroke-linecap="round" stroke-linejoin="round"/>
<path d="M124.2 124.6L127.4 129L124.2 133.4L121 129Z" fill="#1f2a44" stroke="#1f2a44" stroke-width="0.45" stroke-linecap="round" stroke-linejoin="round"/>
<path d="M132.2 124.6L135.4 129L132.2 133.4L129 129Z" fill="#1f2a44" stroke="#1f2a44" stroke-width="0.45" stroke-linecap="round" stroke-linejoin="round"/>
<path d="M140.2 124.6L143.4 129L140.2 133.4L137 129Z" fill="#1f2a44" stroke="#1f2a44" stroke-width="0.45" stroke-linecap="round" stroke-linejoin="round"/>
<path d="M148.2 124.6L151.4 129L148.2 133.4L145 129Z" fill="#1f2a44" stroke="#1f2a44" stroke-width="0.45" stroke-linecap="round" stroke-linejoin="round"/>
<path d="M156.2 124.6L159.4 129L156.2 133.4L153 129Z" fill="#1f2a44" stroke="#1f2a44" stroke-width="0.45" stroke-linecap="round" stroke-linejoin="round"/>
<path d="M164.2 124.6L167.4 129L164.2 133.4L161 129Z" fill="#1f2a44" stroke="#1f2a44" stroke-width="0.45" stroke-linecap="round" stroke-linejoin="round"/>
<path d="M172.2 124.6L175.4 129L172.2 133.4L169 129Z" fill="#1f2a44" stroke="#1f2a44" stroke-width="0.45" stroke-linecap="round" stroke-linejoin="round"/>
<path d="M180.2 124.6L183.4 129L180.2 133.4L177 129Z" fill="#1f2a44" stroke="#1f2a44" stroke-width="0.45" stroke-linecap="round" stroke-linejoin="round"/>
<path d="M120.2 130.2L123.4 134.6L120.2 139L117 134.6Z" fill="#1f2a44" stroke="#1f2a44" stroke-width="0.45" stroke-linecap="round" stroke-linejoin="round"/>
<path d="M128.2 130.2L131.4 134.6L128.2 139L125 134.6Z" fill="#1f2a44" stroke="#1f2a44" stroke-width="0.45" stroke-linecap="round" stroke-linejoin="round"/>
<path d="M136.2 130.2L139.4 134.6L136.2 139L133 134.6Z" fill="#1f2a44" stroke="#1f2a44" stroke-width="0.45" stroke-linecap="round" stroke-linejoin="round"/>
<path d="M144.2 130.2L147.4 134.6L144.2 139L141 134.6Z" fill="#1f2a44" stroke="#1f2a44" stroke-width="0.45" stroke-linecap="round" stroke-linejoin="round"/>
<path d="M152.2 130.2L155.4 134.6L152.2 139L149 134.6Z" fill="#1f2a44" stroke="#1f2a44" stroke-width="0.45" stroke-linecap="round" stroke-linejoin="round"/>
<path d="M160.2 130.2L163.4 134.6L160.2 139L157 134.6Z" fill="#1f2a44" stroke="#1f2a44" stroke-width="0.45" stroke-linecap="round" stroke-linejoin="round"/>
<path d="M168.2 130.2L171.4 134.6L168.2 139L165 134.6Z" fill="#1f2a44" stroke="#1f2a44" stroke-width="0.45" stroke-linecap="round" stroke-linejoin="round"/>
<path d="M176.2 130.2L179.4 134.6L176.2 139L173 134.6Z" fill="#1f2a44" stroke="#1f2a44" stroke-width="0.45" stroke-linecap="round" stroke-linejoin="round"/>
<path d="M184.2 130.2L187.4 134.6L184.2 139L181 134.6Z" fill="#1f2a44" stroke="#1f2a44" stroke-width="0.45" stroke-linecap="round" stroke-linejoin="round"/>
<path d="M124.2 135.8L127.4 140.2L124.2 144.6L121 140.2Z" fill="#1f2a44" stroke="#1f2a44" stroke-width="0.45" stroke-linecap="round" stroke-linejoin="round"/>
<path d="M132.2 135.8L135.4 140.2L132.2 144.6L129 140.2Z" fill="#1f2a44" stroke="#1f2a44" stroke-width="0.45" stroke-linecap="round" stroke-linejoin="round"/>
<path d="M140.2 135.8L143.4 140.2L140.2 144.6L137 140.2Z" fill="#1f2a44" stroke="#1f2a44" stroke-width="0.45" stroke-linecap="round" stroke-linejoin="round"/>
<path d="M148.2 135.8L151.4 140.2L148.2 144.6L145 140.2Z" fill="#1f2a44" stroke="#1f2a44" stroke-width="0.45" stroke-linecap="round" stroke-linejoin="round"/>
<path d="M156.2 135.8L159.4 140.2L156.2 144.6L153 140.2Z" fill="#1f2a44" stroke="#1f2a44" stroke-width="0.45" stroke-linecap="round" stroke-linejoin="round"/>
<path d="M164.2 135.8L167.4 140.2L164.2 144.6L161 140.2Z" fill="#1f2a44" stroke="#1f2a44" stroke-width="0.45" stroke-linecap="round" stroke-linejoin="round"/>
<path d="M172.2 135.8L175.4 140.2L172.2 144.6L169 140.2Z" fill="#1f2a44" stroke="#1f2a44" stroke-width="0.45" stroke-linecap="round" stroke-linejoin="round"/>
<path d="M180.2 135.8L183.4 140.2L180.2 144.6L177 140.2Z" fill="#1f2a44" stroke="#1f2a44" stroke-width="0.45" stroke-linecap="round" stroke-linejoin="round"/>
<path d="M120.2 141.4L123.4 145.8L120.2 150.2L117 145.8Z" fill="#1f2a44" stroke="#1f2a44" stroke-width="0.45" stroke-linecap="round" stroke-linejoin="round"/>
<path d="M128.2 141.4L131.4 145.8L128.2 150.2L125 145.8Z" fill="#1f2a44" stroke="#1f2a44" stroke-width="0.45" stroke-linecap="round" stroke-linejoin="round"/>
<path d="M136.2 141.4L139.4 145.8L136.2 150.2L133 145.8Z" fill="#1f2a44" stroke="#1f2a44" stroke-width="0.45" stroke-linecap="round" stroke-linejoin="round"/>
<path d="M144.2 141.4L147.4 145.8L144.2 150.2L141 145.8Z" fill="#1f2a44" stroke="#1f2a44" stroke-width="0.45" stroke-linecap="round" stroke-linejoin="round"/>
<path d="M152.2 141.4L155.4 145.8L152.2 150.2L149 145.8Z" fill="#1f2a44" stroke="#1f2a44" stroke-width="0.45" stroke-linecap="round" stroke-linejoin="round"/>
<path d="M160.2 141.4L163.4 145.8L160.2 150.2L157 145.8Z" fill="#1f2a44" stroke="#1f2a44" stroke-width="0.45" stroke-linecap="round" stroke-linejoin="round"/>
<path d="M168.2 141.4L171.4 145.8L168.2 150.2L165 145.8Z" fill="#1f2a44" stroke="#1f2a44" stroke-width="0.45" stroke-linecap="round" stroke-linejoin="round"/>
<path d="M176.2 141.4L179.4 145.8L176.2 150.2L173 145.8Z" fill="#1f2a44" stroke="#1f2a44" stroke-width="0.45" stroke-linecap="round" stroke-linejoin="round"/>
<path d="M184.2 141.4L187.4 145.8L184.2 150.2L181 145.8Z" fill="#1f2a44" stroke="#1f2a44" stroke-width="0.45" stroke-linecap="round" stroke-linejoin="round"/>
<path d="M124.2 147L127.4 151.4L124.2 155.8L121 151.4Z" fill="#1f2a44" stroke="#1f2a44" stroke-width="0.45" stroke-linecap="round" stroke-linejoin="round"/>
<path d="M132.2 147L135.4 151.4L132.2 155.8L129 151.4Z" fill="#1f2a44" stroke="#1f2a44" stroke-width="0.45" stroke-linecap="round" stroke-linejoin="round"/>
<path d="M140.2 147L143.4 151.4L140.2 155.8L137 151.4Z" fill="#1f2a44" stroke="#1f2a44" stroke-width="0.45" stroke-linecap="round" stroke-linejoin="round"/>
<path d="M148.2 147L151.4 151.4L148.2 155.8L145 151.4Z" fill="#1f2a44" stroke="#1f2a44" stroke-width="0.45" stroke-linecap="round" stroke-linejoin="round"/>
<path d="M156.2 147L159.4 151.4L156.2 155.8L153 151.4Z" fill="#1f2a44" stroke="#1f2a44" stroke-width="0.45" stroke-linecap="round" stroke-linejoin="round"/>
<path d="M164.2 147L167.4 151.4L164.2 155.8L161 151.4Z" fill="#1f2a44" stroke="#1f2a44" stroke-width="0.45" stroke-linecap="round" stroke-linejoin="round"/>
<path d="M172.2 147L175.4 151.4L172.2 155.8L169 151.4Z" fill="#1f2a44" stroke="#1f2a44" stroke-width="0.45" stroke-linecap="round" stroke-linejoin="round"/>
<path d="M180.2 147L183.4 151.4L180.2 155.8L177 151.4Z" fill="#1f2a44" stroke="#1f2a44" stroke-width="0.45" stroke-linecap="round" stroke-linejoin="round"/>
<path d="M120.2 152.6L123.4 157L120.2 161.4L117 157Z" fill="#1f2a44" stroke="#1f2a44" stroke-width="0.45" stroke-linecap="round" stroke-linejoin="round"/>
<path d="M128.2 152.6L131.4 157L128.2 161.4L125 157Z" fill="#1f2a44" stroke="#1f2a44" stroke-width="0.45" stroke-linecap="round" stroke-linejoin="round"/>
<path d="M136.2 152.6L139.4 157L136.2 161.4L133 157Z" fill="#1f2a44" stroke="#1f2a44" stroke-width="0.45" stroke-linecap="round" stroke-linejoin="round"/>
<path d="M144.2 152.6L147.4 157L144.2 161.4L141 157Z" fill="#1f2a44" stroke="#1f2a44" stroke-width="0.45" stroke-linecap="round" stroke-linejoin="round"/>
<path d="M152.2 152.6L155.4 157L152.2 161.4L149 157Z" fill="#1f2a44" stroke="#1f2a44" stroke-width="0.45" stroke-linecap="round" stroke-linejoin="round"/>
<path d="M160.2 152.6L163.4 157L160.2 161.4L157 157Z" fill="#1f2a44" stroke="#1f2a44" stroke-width="0.45" stroke-linecap="round" stroke-linejoin="round"/>
<path d="M168.2 152.6L171.4 157L168.2 161.4L165 157Z" fill="#1f2a44" stroke="#1f2a44" stroke-width="0.45" stroke-linecap="round" stroke-linejoin="round"/>
<path d="M176.2 152.6L179.4 157L176.2 161.4L173 157Z" fill="#1f2a44" stroke="#1f2a44" stroke-width="0.45" stroke-linecap="round" stroke-linejoin="round"/>
<path d="M184.2 152.6L187.4 157L184.2 161.4L181 157Z" fill="#1f2a44" stroke="#1f2a44" stroke-width="0.45" stroke-linecap="round" stroke-linejoin="round"/>
<path d="M124.2 158.2L127.4 162.6L124.2 167L121 162.6Z" fill="#1f2a44" stroke="#1f2a44" stroke-width="0.45" stroke-linecap="round" stroke-linejoin="round"/>
<path d="M132.2 158.2L135.4 162.6L132.2 167L129 162.6Z" fill="#1f2a44" stroke="#1f2a44" stroke-width="0.45" stroke-linecap="round" stroke-linejoin="round"/>
<path d="M140.2 158.2L143.4 162.6L140.2 167L137 162.6Z" fill="#1f2a44" stroke="#1f2a44" stroke-width="0.45" stroke-linecap="round" stroke-linejoin="round"/>
<path d="M148.2 158.2L151.4 162.6L148.2 167L145 162.6Z" fill="#1f2a44" stroke="#1f2a44" stroke-width="0.45" stroke-linecap="round" stroke-linejoin="round"/>
<path d="M156.2 158.2L159.4 162.6L156.2 167L153 162.6Z" fill="#1f2a44" stroke="#1f2a44" stroke-width="0.45" stroke-linecap="round" stroke-linejoin="round"/>
<path d="M164.2 158.2L167.4 162.6L164.2 167L161 162.6Z" fill="#1f2a44" stroke="#1f2a44" stroke-width="0.45" stroke-linecap="round" stroke-linejoin="round"/>
<path d="M172.2 158.2L175.4 162.6L172.2 167L169 162.6Z" fill="#1f2a44" stroke="#1f2a44" stroke-width="0.45" stroke-linecap="round" stroke-linejoin="round"/>
<path d="M180.2 158.2L183.4 162.6L180.2 167L177 162.6Z" fill="#1f2a44" stroke="#1f2a44" stroke-width="0.45" stroke-linecap="round" stroke-linejoin="round"/>
<path d="M120.2 163.8L123.4 168.2L120.2 172.6L117 168.2Z" fill="#1f2a44" stroke="#1f2a44" stroke-width="0.45" stroke-linecap="round" stroke-linejoin="round"/>
<path d="M128.2 163.8L131.4 168.2L128.2 172.6L125 168.2Z" fill="#1f2a44" stroke="#1f2a44" stroke-width="0.45" stroke-linecap="round" stroke-linejoin="round"/>
<path d="M136.2 163.8L139.4 168.2L136.2 172.6L133 168.2Z" fill="#1f2a44" stroke="#1f2a44" stroke-width="0.45" stroke-linecap="round" stroke-linejoin="round"/>
<path d="M144.2 163.8L147.4 168.2L144.2 172.6L141 168.2Z" fill="#1f2a44" stroke="#1f2a44" stroke-width="0.45" stroke-linecap="round" stroke-linejoin="round"/>
<path d="M152.2 163.8L155.4 168.2L152.2 172.6L149 168.2Z" fill="#1f2a44" stroke="#1f2a44" stroke-width="0.45" stroke-linecap="round" stroke-linejoin="round"/>
<path d="M160.2 163.8L163.4 168.2L160.2 172.6L157 168.2Z" fill="#1f2a44" stroke="#1f2a44" stroke-width="0.45" stroke-linecap="round" stroke-linejoin="round"/>
<path d="M168.2 163.8L171.4 168.2L168.2 172.6L165 168.2Z" fill="#1f2a44" stroke="#1f2a44" stroke-width="0.45" stroke-linecap="round" stroke-linejoin="round"/>
<path d="M176.2 163.8L179.4 168.2L176.2 172.6L173 168.2Z" fill="#1f2a44" stroke="#1f2a44" stroke-width="0.45" stroke-linecap="round" stroke-linejoin="round"/>
<path d="M184.2 163.8L187.4 168.2L184.2 172.6L181 168.2Z" fill="#1f2a44" stroke="#1f2a44" stroke-width="0.45" stroke-linecap="round" stroke-linejoin="round"/>
<text x="12" y="189" font-family="Helvetica,Arial,sans-serif" font-size="2.5" fill="#1f2a44" text-anchor="start">Adults only: cut on a cutting mat with small scissors or a craft knife. Smooth sharp corners. Wash before first use.</text>
<text x="12" y="194" font-family="Helvetica,Arial,sans-serif" font-size="2.5" fill="#9aa1ad" text-anchor="start">Use: hold flat, dab with a nearly dry sponge from the edges in, lift straight up. Never over the eyes.</text>
<text x="12" y="199" font-family="Helvetica,Arial,sans-serif" font-size="2.5" fill="#9aa1ad" text-anchor="start">After use: soapy water, rinse, press dry between paper towels. Keep it for face paint only.</text>
</svg>
