<svg xmlns="http://www.w3.org/2000/svg" viewBox="0 0 638 271" width="638" height="271" role="img" aria-labelledby="s9t">
<title id="s9t">Reading the patch test. OK: the skin looks the same as the rest of the arm, so you can use the product. Stop: a red, raised, itchy or swollen patch, so wash it off and do not use that product.</title>
<rect width="638" height="271" fill="#ffffff"/>
<rect x="13" y="39" width="282" height="189" rx="8" fill="#fff" stroke="#e3ddd5"/>
<svg x="14" y="40" width="280" height="187" viewBox="0 0 300 200" preserveAspectRatio="xMidYMid meet"><rect x="0" y="0" width="300" height="200" fill="#ffffff"/><path d="M-10 62C70 56 170 50 310 42V172C170 166 70 158 -10 154Z" fill="#d9a77f"/><path d="M-10 62C70 56 170 50 310 42M-10 154C70 158 170 166 310 172" fill="none" stroke="#5b4636" stroke-width="2.4"/><path d="M22 66C17 90 17 124 22 152M32 66C28 90 28 124 32 152" fill="none" stroke="#5b4636" stroke-width="1.2" opacity="0.35"/><path d="M276 46C266 80 266 130 276 170" fill="none" stroke="#5b4636" stroke-width="1.4" opacity="0.4"/><path d="M40 112C100 104 170 112 260 98M60 128C120 132 180 126 250 132" fill="none" stroke="#7d8fb3" stroke-width="2" opacity="0.25"/><path d="M123.6 114l17.6 19.8l35.2 -44" fill="none" stroke="#2f9e44" stroke-width="11" stroke-linecap="round" stroke-linejoin="round"/></svg>
<text x="16" y="33" text-anchor="start" font-family="system-ui,Segoe UI,Arial,sans-serif" font-size="15" font-weight="700" fill="#2f9e44">OK: use it</text>
<text x="154" y="248" text-anchor="middle" font-family="system-ui,Segoe UI,Arial,sans-serif" font-size="14" fill="#6b7280">Skin looks the same</text>
<rect x="343" y="39" width="282" height="189" rx="8" fill="#fff" stroke="#e3ddd5"/>
<svg x="344" y="40" width="280" height="187" viewBox="0 0 300 200" preserveAspectRatio="xMidYMid meet"><rect x="0" y="0" width="300" height="200" fill="#ffffff"/><path d="M-10 62C70 56 170 50 310 42V172C170 166 70 158 -10 154Z" fill="#d9a77f"/><path d="M-10 62C70 56 170 50 310 42M-10 154C70 158 170 166 310 172" fill="none" stroke="#5b4636" stroke-width="2.4"/><path d="M22 66C17 90 17 124 22 152M32 66C28 90 28 124 32 152" fill="none" stroke="#5b4636" stroke-width="1.2" opacity="0.35"/><path d="M276 46C266 80 266 130 276 170" fill="none" stroke="#5b4636" stroke-width="1.4" opacity="0.4"/><path d="M40 112C100 104 170 112 260 98M60 128C120 132 180 126 250 132" fill="none" stroke="#7d8fb3" stroke-width="2" opacity="0.25"/><defs><radialGradient id="rg1"><stop offset="0" stop-color="#e8590c" stop-opacity="0.55"/><stop offset="1" stop-color="#e8590c" stop-opacity="0"/></radialGradient></defs><ellipse cx="150" cy="106" rx="55.2" ry="43.2" fill="url(#rg1)"/><defs><radialGradient id="rg2"><stop offset="0" stop-color="#e03131" stop-opacity="0.5"/><stop offset="1" stop-color="#e03131" stop-opacity="0"/></radialGradient></defs><ellipse cx="159.6" cy="101.2" rx="33.6" ry="26.4" fill="url(#rg2)"/><circle cx="156" cy="106" r="2.4" fill="#c92a2a" opacity="0.7"/><circle cx="155.6" cy="119.3" r="3.6" fill="#c92a2a" opacity="0.7"/><circle cx="134.2" cy="122.4" r="4.8" fill="#c92a2a" opacity="0.7"/><circle cx="120.9" cy="94.8" r="2.4" fill="#c92a2a" opacity="0.7"/><circle cx="148.6" cy="66.4" r="3.6" fill="#c92a2a" opacity="0.7"/><circle cx="160.9" cy="100.9" r="4.8" fill="#c92a2a" opacity="0.7"/><circle cx="165.2" cy="119.7" r="2.4" fill="#c92a2a" opacity="0.7"/><circle cx="140.6" cy="133.2" r="3.6" fill="#c92a2a" opacity="0.7"/><circle cx="112.9" cy="108.6" r="4.8" fill="#c92a2a" opacity="0.7"/><circle cx="145.6" cy="97.4" r="2.4" fill="#c92a2a" opacity="0.7"/><circle cx="161.6" cy="92.2" r="3.6" fill="#c92a2a" opacity="0.7"/><circle cx="175.2" cy="113.7" r="4.8" fill="#c92a2a" opacity="0.7"/><circle cx="153.6" cy="140.6" r="2.4" fill="#c92a2a" opacity="0.7"/><circle cx="143.7" cy="109.5" r="3.6" fill="#c92a2a" opacity="0.7"/><circle cx="137.7" cy="96.4" r="4.8" fill="#c92a2a" opacity="0.7"/><circle cx="156.2" cy="82.8" r="2.4" fill="#c92a2a" opacity="0.7"/><path d="M235 75l30 30M265 75l-30 30" stroke="#e03131" stroke-width="7.5" stroke-linecap="round"/></svg>
<text x="346" y="33" text-anchor="start" font-family="system-ui,Segoe UI,Arial,sans-serif" font-size="15" font-weight="700" fill="#e03131">Stop: don't use it</text>
<text x="484" y="248" text-anchor="middle" font-family="system-ui,Segoe UI,Arial,sans-serif" font-size="14" fill="#6b7280">Red, itchy, swollen</text>
</svg>
