<svg xmlns="http://www.w3.org/2000/svg" viewBox="0 0 720 470" width="720" height="470" role="img" aria-labelledby="p1t">
<title id="p1t">Ideal items and cheaper substitutes: a face-painting sponge or a makeup wedge; a mixing palette or a white plate; a face-painting brush or a synthetic art brush with a sharp point</title>
<rect width="720" height="470" fill="#fbf8f4"/>
<text x="170" y="34" text-anchor="middle" font-family="system-ui,Segoe UI,Arial,sans-serif" font-size="17" font-weight="700" fill="none" stroke="#fff" stroke-width="4" stroke-linejoin="round" opacity="0.9">Ideal</text><text x="170" y="34" text-anchor="middle" font-family="system-ui,Segoe UI,Arial,sans-serif" font-size="17" font-weight="700" fill="#2b2f3a">Ideal</text><text x="560" y="34" text-anchor="middle" font-family="system-ui,Segoe UI,Arial,sans-serif" font-size="17" font-weight="700" fill="none" stroke="#fff" stroke-width="4" stroke-linejoin="round" opacity="0.9">Also works</text><text x="560" y="34" text-anchor="middle" font-family="system-ui,Segoe UI,Arial,sans-serif" font-size="17" font-weight="700" fill="#2f9e44">Also works</text><path d="M136 120C134 86 160 70 188 74C206 78 208 100 204 120Z" fill="#f6e7d0" stroke="#d2b48c" stroke-width="2"/><circle cx="144" cy="90" r="1.6" fill="#d9c09a"/><circle cx="181" cy="113" r="1.6" fill="#d9c09a"/><circle cx="162" cy="110" r="1.6" fill="#d9c09a"/><circle cx="199" cy="107" r="1.6" fill="#d9c09a"/><circle cx="180" cy="104" r="1.6" fill="#d9c09a"/><circle cx="161" cy="101" r="1.6" fill="#d9c09a"/><circle cx="198" cy="98" r="1.6" fill="#d9c09a"/><circle cx="179" cy="95" r="1.6" fill="#d9c09a"/><circle cx="160" cy="92" r="1.6" fill="#d9c09a"/><circle cx="197" cy="115" r="1.6" fill="#d9c09a"/><circle cx="178" cy="112" r="1.6" fill="#d9c09a"/><circle cx="159" cy="109" r="1.6" fill="#d9c09a"/><circle cx="196" cy="106" r="1.6" fill="#d9c09a"/><circle cx="177" cy="103" r="1.6" fill="#d9c09a"/><text x="170" y="162" text-anchor="middle" font-family="system-ui,Segoe UI,Arial,sans-serif" font-size="15" fill="none" stroke="#fff" stroke-width="4" stroke-linejoin="round" opacity="0.9">Face-painting sponge</text><text x="170" y="162" text-anchor="middle" font-family="system-ui,Segoe UI,Arial,sans-serif" font-size="15" fill="#2b2f3a">Face-painting sponge</text><path d="M300 100L380 100" fill="none" stroke="#adb5bd" stroke-width="2.5" stroke-linecap="round"/><path d="M371 104.3L380 100L371 95.7" fill="none" stroke="#adb5bd" stroke-width="2.5" stroke-linecap="round" stroke-linejoin="round"/><path d="M520 120L560 70L600 120Z" fill="#fde2cf" stroke="#e0a982" stroke-width="2"/><text x="560" y="162" text-anchor="middle" font-family="system-ui,Segoe UI,Arial,sans-serif" font-size="15" fill="none" stroke="#fff" stroke-width="4" stroke-linejoin="round" opacity="0.9">Makeup wedge</text><text x="560" y="162" text-anchor="middle" font-family="system-ui,Segoe UI,Arial,sans-serif" font-size="15" fill="#2b2f3a">Makeup wedge</text><rect x="100" y="210" width="112" height="60" rx="10" fill="#f1f3f5" stroke="#adb5bd" stroke-width="2"/><circle cx="133" cy="240" r="18" fill="#2f6fe0" stroke="rgba(0,0,0,0.25)"/><circle cx="179" cy="240" r="18" fill="#ffffff" stroke="rgba(0,0,0,0.25)"/><text x="170" y="302" text-anchor="middle" font-family="system-ui,Segoe UI,Arial,sans-serif" font-size="15" fill="none" stroke="#fff" stroke-width="4" stroke-linejoin="round" opacity="0.9">Mixing palette</text><text x="170" y="302" text-anchor="middle" font-family="system-ui,Segoe UI,Arial,sans-serif" font-size="15" fill="#2b2f3a">Mixing palette</text><path d="M300 240L380 240" fill="none" stroke="#adb5bd" stroke-width="2.5" stroke-linecap="round"/><path d="M371 244.3L380 240L371 235.7" fill="none" stroke="#adb5bd" stroke-width="2.5" stroke-linecap="round" stroke-linejoin="round"/><circle cx="560" cy="240" r="40" fill="#fff" stroke="#c9cdd3" stroke-width="2"/><circle cx="560" cy="240" r="30" fill="none" stroke="#eceef1" stroke-width="2"/><text x="560" y="302" text-anchor="middle" font-family="system-ui,Segoe UI,Arial,sans-serif" font-size="15" fill="none" stroke="#fff" stroke-width="4" stroke-linejoin="round" opacity="0.9">White plate or lid</text><text x="560" y="302" text-anchor="middle" font-family="system-ui,Segoe UI,Arial,sans-serif" font-size="15" fill="#2b2f3a">White plate or lid</text><path d="M212 384.8L70 382.7L70 377.3L212 375.2Z" fill="#2b6cb0"/><path d="M234 385.1L212 385.1L212 374.9L234 374.9Z" fill="#b8bec6" stroke="#868e96" stroke-width="1"/><path d="M260 380L248.3 386L234 384.8L234 375.2L248.3 374Z" fill="#3b2f2a"/><text x="170" y="434" text-anchor="middle" font-family="system-ui,Segoe UI,Arial,sans-serif" font-size="15" fill="none" stroke="#fff" stroke-width="4" stroke-linejoin="round" opacity="0.9">Face-painting brush</text><text x="170" y="434" text-anchor="middle" font-family="system-ui,Segoe UI,Arial,sans-serif" font-size="15" fill="#2b2f3a">Face-painting brush</text><path d="M300 372L380 372" fill="none" stroke="#adb5bd" stroke-width="2.5" stroke-linecap="round"/><path d="M371 376.3L380 372L371 367.7" fill="none" stroke="#adb5bd" stroke-width="2.5" stroke-linecap="round" stroke-linejoin="round"/><path d="M602 384.8L460 382.7L460 377.3L602 375.2Z" fill="#7a5c3e"/><path d="M624 385.1L602 385.1L602 374.9L624 374.9Z" fill="#b8bec6" stroke="#868e96" stroke-width="1"/><path d="M650 380L638.3 386L624 384.8L624 375.2L638.3 374Z" fill="#3b2f2a"/><text x="560" y="434" text-anchor="middle" font-family="system-ui,Segoe UI,Arial,sans-serif" font-size="15" fill="none" stroke="#fff" stroke-width="4" stroke-linejoin="round" opacity="0.9">Synthetic art brush</text><text x="560" y="434" text-anchor="middle" font-family="system-ui,Segoe UI,Arial,sans-serif" font-size="15" fill="#2b2f3a">Synthetic art brush</text>
</svg>
