<svg xmlns="http://www.w3.org/2000/svg" viewBox="0 0 916 244" width="916" height="244" role="img" aria-labelledby="s10t">
<title id="s10t">Never paint over: a cut or scrape, a rash or eczema, sunburn, a cold sore, or a red, sore eye. Leave that person or that area unpainted.</title>
<rect width="916" height="244" fill="#ffffff"/>
<rect x="13" y="39" width="162" height="162" rx="8" fill="#fff" stroke="#e3ddd5"/>
<svg x="14" y="40" width="160" height="160" viewBox="0 0 200 200" preserveAspectRatio="xMidYMid meet"><rect x="0" y="0" width="200" height="200" fill="#ffffff"/><rect x="0" y="0" width="200" height="200" fill="#d9a77f"/><defs><radialGradient id="rg3"><stop offset="0" stop-color="#e03131" stop-opacity="0.35"/><stop offset="1" stop-color="#e03131" stop-opacity="0"/></radialGradient></defs><ellipse cx="100" cy="100" rx="70" ry="22" fill="url(#rg3)"/><path d="M40 116L42.4 115.2L45.4 114.1L48.9 112.9L52.8 111.5L57 110L61.5 108.4L66.3 106.8L71.1 105.1L76.1 103.4L81.1 101.7L86.1 100.1L90.9 98.6L95.6 97.2L100 96L104.4 94.9L109.1 93.8L113.9 92.7L118.9 91.6L123.9 90.6L128.9 89.7L133.8 88.8L138.5 87.9L143 87.1L147.2 86.3L151.1 85.6L154.6 85L157.6 84.5L160 84" fill="none" stroke="#a61e1e" stroke-width="5" stroke-linecap="round" stroke-linejoin="round"/><path d="M60 112L110 96" fill="none" stroke="#e8590c" stroke-width="2" stroke-linecap="round" stroke-linejoin="round"/></svg>
<text x="16" y="33" text-anchor="start" font-family="system-ui,Segoe UI,Arial,sans-serif" font-size="15" font-weight="700" fill="#e03131">No</text>
<text x="94" y="221" text-anchor="middle" font-family="system-ui,Segoe UI,Arial,sans-serif" font-size="14" fill="#6b7280">Cut or scrape</text>
<rect x="195" y="39" width="162" height="162" rx="8" fill="#fff" stroke="#e3ddd5"/>
<svg x="196" y="40" width="160" height="160" viewBox="0 0 200 200" preserveAspectRatio="xMidYMid meet"><rect x="0" y="0" width="200" height="200" fill="#ffffff"/><rect x="0" y="0" width="200" height="200" fill="#d9a77f"/><defs><radialGradient id="rg4"><stop offset="0" stop-color="#e8590c" stop-opacity="0.55"/><stop offset="1" stop-color="#e8590c" stop-opacity="0"/></radialGradient></defs><ellipse cx="100" cy="100" rx="64.4" ry="50.4" fill="url(#rg4)"/><defs><radialGradient id="rg5"><stop offset="0" stop-color="#e03131" stop-opacity="0.5"/><stop offset="1" stop-color="#e03131" stop-opacity="0"/></radialGradient></defs><ellipse cx="111.2" cy="94.4" rx="39.2" ry="30.8" fill="url(#rg5)"/><circle cx="106" cy="100" r="2.8" fill="#c92a2a" opacity="0.7"/><circle cx="106.2" cy="114.5" r="4.2" fill="#c92a2a" opacity="0.7"/><circle cx="82.2" cy="118.4" r="5.6" fill="#c92a2a" opacity="0.7"/><circle cx="67" cy="87.3" r="2.8" fill="#c92a2a" opacity="0.7"/><circle cx="98.4" cy="54.8" r="4.2" fill="#c92a2a" opacity="0.7"/><circle cx="111.8" cy="94.5" r="5.6" fill="#c92a2a" opacity="0.7"/><circle cx="116.9" cy="115.3" r="2.8" fill="#c92a2a" opacity="0.7"/><circle cx="89.4" cy="130.8" r="4.2" fill="#c92a2a" opacity="0.7"/><circle cx="57.7" cy="103" r="5.6" fill="#c92a2a" opacity="0.7"/><circle cx="95.4" cy="90.9" r="2.8" fill="#c92a2a" opacity="0.7"/><circle cx="112.9" cy="84.7" r="4.2" fill="#c92a2a" opacity="0.7"/><circle cx="128.5" cy="108.7" r="5.6" fill="#c92a2a" opacity="0.7"/><circle cx="104.1" cy="139.4" r="2.8" fill="#c92a2a" opacity="0.7"/><circle cx="93.5" cy="103.6" r="4.2" fill="#c92a2a" opacity="0.7"/><circle cx="86.4" cy="89.4" r="5.6" fill="#c92a2a" opacity="0.7"/><circle cx="107" cy="73.9" r="2.8" fill="#c92a2a" opacity="0.7"/><path d="M60 70l8 3" stroke="#fff" stroke-width="2" opacity="0.6"/><path d="M89 111l8 3" stroke="#fff" stroke-width="2" opacity="0.6"/><path d="M118 92l8 3" stroke="#fff" stroke-width="2" opacity="0.6"/><path d="M67 73l8 3" stroke="#fff" stroke-width="2" opacity="0.6"/><path d="M96 114l8 3" stroke="#fff" stroke-width="2" opacity="0.6"/><path d="M125 95l8 3" stroke="#fff" stroke-width="2" opacity="0.6"/><path d="M74 76l8 3" stroke="#fff" stroke-width="2" opacity="0.6"/><path d="M103 117l8 3" stroke="#fff" stroke-width="2" opacity="0.6"/><path d="M132 98l8 3" stroke="#fff" stroke-width="2" opacity="0.6"/><path d="M81 79l8 3" stroke="#fff" stroke-width="2" opacity="0.6"/></svg>
<text x="198" y="33" text-anchor="start" font-family="system-ui,Segoe UI,Arial,sans-serif" font-size="15" font-weight="700" fill="#e03131">No</text>
<text x="276" y="221" text-anchor="middle" font-family="system-ui,Segoe UI,Arial,sans-serif" font-size="14" fill="#6b7280">Rash or eczema</text>
<rect x="377" y="39" width="162" height="162" rx="8" fill="#fff" stroke="#e3ddd5"/>
<svg x="378" y="40" width="160" height="160" viewBox="0 0 200 200" preserveAspectRatio="xMidYMid meet"><rect x="0" y="0" width="200" height="200" fill="#ffffff"/><rect x="0" y="0" width="200" height="200" fill="#d9a77f"/><defs><radialGradient id="rg6"><stop offset="0" stop-color="#f03e3e" stop-opacity="0.55"/><stop offset="1" stop-color="#f03e3e" stop-opacity="0"/></radialGradient></defs><ellipse cx="100" cy="100" rx="150" ry="150" fill="url(#rg6)"/><path d="M40 50q6 -4 12 0q-6 6 -12 0Z" fill="#fff" opacity="0.8"/><path d="M63 87q6 -4 12 0q-6 6 -12 0Z" fill="#fff" opacity="0.8"/><path d="M86 124q6 -4 12 0q-6 6 -12 0Z" fill="#fff" opacity="0.8"/><path d="M109 51q6 -4 12 0q-6 6 -12 0Z" fill="#fff" opacity="0.8"/><path d="M132 88q6 -4 12 0q-6 6 -12 0Z" fill="#fff" opacity="0.8"/><path d="M155 125q6 -4 12 0q-6 6 -12 0Z" fill="#fff" opacity="0.8"/><path d="M58 52q6 -4 12 0q-6 6 -12 0Z" fill="#fff" opacity="0.8"/></svg>
<text x="380" y="33" text-anchor="start" font-family="system-ui,Segoe UI,Arial,sans-serif" font-size="15" font-weight="700" fill="#e03131">No</text>
<text x="458" y="221" text-anchor="middle" font-family="system-ui,Segoe UI,Arial,sans-serif" font-size="14" fill="#6b7280">Sunburn</text>
<rect x="559" y="39" width="162" height="162" rx="8" fill="#fff" stroke="#e3ddd5"/>
<svg x="560" y="40" width="160" height="160" viewBox="0 0 200 200" preserveAspectRatio="xMidYMid meet"><rect x="0" y="0" width="200" height="200" fill="#ffffff"/><rect x="0" y="0" width="200" height="200" fill="#d9a77f"/><path d="M30 110C70 88 110 88 130 100C150 88 170 92 190 104C150 140 70 140 30 110Z" fill="#c9787a" stroke="#5b4636" stroke-width="2"/><defs><radialGradient id="rg7"><stop offset="0" stop-color="#e03131" stop-opacity="0.5"/><stop offset="1" stop-color="#e03131" stop-opacity="0"/></radialGradient></defs><ellipse cx="150" cy="82" rx="30" ry="22" fill="url(#rg7)"/><circle cx="142" cy="80" r="5" fill="#fff4d6" stroke="#e03131" stroke-width="1.5"/><circle cx="154" cy="76" r="5" fill="#fff4d6" stroke="#e03131" stroke-width="1.5"/><circle cx="160" cy="86" r="5" fill="#fff4d6" stroke="#e03131" stroke-width="1.5"/><circle cx="148" cy="88" r="5" fill="#fff4d6" stroke="#e03131" stroke-width="1.5"/><circle cx="137" cy="89" r="5" fill="#fff4d6" stroke="#e03131" stroke-width="1.5"/></svg>
<text x="562" y="33" text-anchor="start" font-family="system-ui,Segoe UI,Arial,sans-serif" font-size="15" font-weight="700" fill="#e03131">No</text>
<text x="640" y="221" text-anchor="middle" font-family="system-ui,Segoe UI,Arial,sans-serif" font-size="14" fill="#6b7280">Cold sore</text>
<rect x="741" y="39" width="162" height="162" rx="8" fill="#fff" stroke="#e3ddd5"/>
<svg x="742" y="40" width="160" height="160" viewBox="0 0 200 200" preserveAspectRatio="xMidYMid meet"><rect x="0" y="0" width="200" height="200" fill="#ffffff"/><rect x="0" y="0" width="200" height="200" fill="#d9a77f"/><defs><radialGradient id="rg8"><stop offset="0" stop-color="#e03131" stop-opacity="0.4"/><stop offset="1" stop-color="#e03131" stop-opacity="0"/></radialGradient></defs><ellipse cx="100" cy="104" rx="70" ry="34" fill="url(#rg8)"/><path d="M30 104C60 64 140 64 170 104C140 140 60 140 30 104Z" fill="#ffd8d8" stroke="#5b4636" stroke-width="2.5"/><path d="M50 100Q70 92 80 104M150 98Q132 92 122 106" stroke="#e03131" stroke-width="2" fill="none"/><circle cx="100" cy="102" r="20" fill="#5a4030"/><circle cx="106" cy="96" r="5" fill="#fff"/><path d="M64 134.3C71.8 144.7 71.8 153.8 64 153.8C56.2 153.8 56.2 144.7 64 134.3Z" fill="#74c0fc"/></svg>
<text x="744" y="33" text-anchor="start" font-family="system-ui,Segoe UI,Arial,sans-serif" font-size="15" font-weight="700" fill="#e03131">No</text>
<text x="822" y="221" text-anchor="middle" font-family="system-ui,Segoe UI,Arial,sans-serif" font-size="14" fill="#6b7280">Red, sore eye</text>
</svg>
