<svg xmlns="http://www.w3.org/2000/svg" viewBox="0 0 600 400" width="600" height="400" role="img" aria-labelledby="p30t">
<title id="p30t">Where the butterfly goes. The body sits on the center line, down the nose bridge. The upper wings cover the brows and the closed eyelids, with their tips at the same height on both sides. The lower wings sit on the cheeks, below the lower lashes. The two halves are mirror images.</title>
<rect width="600" height="400" fill="#fbf8f4"/>
<svg x="0" y="0" width="360" height="400" viewBox="50 60 300 340"><rect x="50" y="60" width="300" height="340" fill="#fbf8f4"/><defs><clipPath id="h29"><path d="M200 68C268 68 307 113 309 183C311 245 304 290 290 330C272 382 240 424 200 426C160 424 128 382 110 330C96 290 89 245 91 183C93 113 132 68 200 68Z"/></clipPath></defs><path d="M158 404C161 440 156 470 146 500M242 404C239 440 244 470 254 500" fill="none" stroke="#5b4636" stroke-width="2.2" stroke-linecap="round"/><path d="M158 404C161 440 156 470 146 500H254C244 470 239 440 242 404Z" fill="#f3d9c4"/><path d="M93 212C74 200 63 222 66 248C69 274 80 292 99 292" fill="#f3d9c4" stroke="#5b4636" stroke-width="2.2"/><path d="M307 212C326 200 337 222 334 248C331 274 320 292 301 292" fill="#f3d9c4" stroke="#5b4636" stroke-width="2.2"/><path d="M200 68C268 68 307 113 309 183C311 245 304 290 290 330C272 382 240 424 200 426C160 424 128 382 110 330C96 290 89 245 91 183C93 113 132 68 200 68Z" fill="#f3d9c4" stroke="#5b4636" stroke-width="2.4"/><path d="true" fill="none" stroke="#8a7462" stroke-width="1.6" stroke-linecap="round" stroke-linejoin="round" stroke-dasharray="5 6"/><g clip-path="url(#h29)"><path d="M194 214C190 186 178 150 150 128C128 112 104 116 96 140C90 162 92 196 98 222C102 232 112 238 124 236C140 234 160 236 178 232C188 228 193 222 194 214Z" fill="none" stroke="#7b3fc4" stroke-width="2.4" stroke-linejoin="round"/><path d="M190 252C186 274 174 300 152 316C132 330 108 324 102 300C98 282 104 262 118 250C134 244 160 244 176 246C184 247 189 249 190 252Z" fill="none" stroke="#7b3fc4" stroke-width="2.4" stroke-linejoin="round"/><g transform="translate(400 0) scale(-1 1)"><path d="M194 214C190 186 178 150 150 128C128 112 104 116 96 140C90 162 92 196 98 222C102 232 112 238 124 236C140 234 160 236 178 232C188 228 193 222 194 214Z" fill="none" stroke="#7b3fc4" stroke-width="2.4" stroke-linejoin="round"/><path d="M190 252C186 274 174 300 152 316C132 330 108 324 102 300C98 282 104 262 118 250C134 244 160 244 176 246C184 247 189 249 190 252Z" fill="none" stroke="#7b3fc4" stroke-width="2.4" stroke-linejoin="round"/></g><path d="M196.1 186L195.6 187.2L195 188.6L194.4 190.1L193.7 191.8L193.5 193.6L193.5 195.5L193.5 197.6L193.5 199.8L193.5 202L193.5 204.4L193.5 206.8L193.5 209.3L193.5 211.8L193.5 214.4L193.5 217L193.5 219.6L193.5 222.2L193.5 224.8L193.8 227.4L194 230L194.2 232.7L194.4 235.5L194.7 238.5L195 241.6L195.2 244.9L195.5 248.2L195.8 251.6L196.2 255L196.5 258.4L196.8 261.8L197.1 265.1L197.5 268.3L197.8 271.4L198.1 274.4L198.4 277.3L198.8 279.9L199.1 282.3L199.4 284.5L199.5 286.4L199.5 288L200.5 288L200.5 286.4L200.6 284.5L200.9 282.3L201.2 279.9L201.6 277.3L201.9 274.4L202.2 271.4L202.5 268.3L202.9 265.1L203.2 261.8L203.5 258.4L203.8 255L204.2 251.6L204.5 248.2L204.8 244.9L205 241.6L205.3 238.5L205.6 235.5L205.8 232.7L206 230L206.2 227.4L206.5 224.8L206.5 222.2L206.5 219.6L206.5 217L206.5 214.4L206.5 211.8L206.5 209.3L206.5 206.8L206.5 204.4L206.5 202L206.5 199.8L206.5 197.6L206.5 195.5L206.5 193.6L206.3 191.8L205.6 190.1L205 188.6L204.4 187.2L203.9 186Z" fill="#1d1d22"/><ellipse cx="200" cy="198" rx="7.5" ry="16" fill="#1d1d22"/><circle cx="200" cy="176" r="8" fill="#1d1d22"/><path d="M198.1 170L198 169.3L197.8 168.5L197.6 167.7L197.5 166.7L197.3 165.6L197.1 164.4L196.9 163.2L196.7 161.9L196.5 160.6L196.2 159.3L196 157.9L195.7 156.5L195.4 155.1L195.1 153.6L194.8 152.2L194.5 150.8L194.1 149.5L193.7 148.1L193.3 146.9L192.9 145.6L192.5 144.5L192 143.3L191.5 142L191 140.8L190.4 139.6L189.9 138.4L189.3 137.2L188.7 136L188.1 134.8L187.4 133.6L186.8 132.4L186.2 131.3L185.6 130.1L184.9 129L184.3 127.9L183.7 126.9L183.1 125.9L182.5 124.9L182 124L181.4 123.1L180.9 122.2L180.3 121.3L179.7 120.5L179.1 119.7L178.5 118.9L177.9 118.2L177.4 117.5L176.8 116.8L176.2 116.2L175.6 115.5L175.1 114.9L174.6 114.4L174.1 113.8L173.6 113.3L173.1 112.8L172.7 112.4L172.3 112L172 111.6L171.7 111.2L171.4 110.9L171.2 110.6L171 110.3L170.9 110.1L170.7 110L170.7 109.9L170.7 109.9L170.7 109.9L170.8 110.1L170.8 110.6L170.6 111.4L170 111.9L169.6 112.1L169.5 112.2L169.5 112.2L169.8 112.1L170.2 111.9L170.7 111.4L171 110.8L171.1 110.2L171 109.9L171 109.7L171 109.7L171 109.6L171 109.6L171 109.5L171 109.4L171 109.4L171 109.3L171 109.2L171 109.2L171 109.1L171 109L171 109L171 108.9L171 108.8L171 108.8L171 108.7L171 108.7L171 108.6L171 108.5L171 108.5L171 108.4L171 108.4L171 108.3L171 108.3L171.1 108.2L171.1 108.1L171.1 108.1L171.1 108L171.1 108L171.1 107.9L171.2 107.9L171.2 107.8L171.2 107.7L171.2 107.7L171.3 107.6L171.3 107.6L171.3 107.5L171.3 107.5L171.4 107.4L171.4 107.4L171.4 107.3L171.4 107.3L171.5 107.3L171.5 107.2L171.5 107.2L171.5 107.1L171.6 107.1L171.6 107L171.6 107L171.7 106.9L171.7 106.9L171.7 106.9L171.8 106.8L171.8 106.8L171.9 106.7L171.9 106.7L171.9 106.7L172 106.6L172 106.6L172 106.6L172.1 106.5L172.1 106.5L172.1 106.5L172.2 106.4L172.2 106.4L172.3 106.4L172.3 106.4L172.3 106.3L172.4 106.3L172.4 106.3L172.5 106.3L172.5 106.2L172.5 106.2L172.6 106.2L172.6 106.2L172.7 106.1L172.7 106.1L172.8 106.1L172.8 106.1L172.8 106.1L172.9 106L172.9 106L173 106L173 106L173 106L173.1 106L173.1 106L173.2 106L173.2 106L173.3 105.9L173.3 105.9L173.3 105.9L173.4 105.9L173.4 105.9L173.5 105.9L173.5 105.9L173.6 105.9L173.6 105.9L173.6 105.9L173.7 105.9L173.7 105.9L173.7 105.9L173.8 105.9L173.8 105.9L173.9 105.9L173.9 105.9L173.9 105.9L174 105.9L174 105.9L174.1 105.9L174.1 105.9L174.1 105.9L174.2 105.9L174.2 105.9L174.2 106L174.3 106L174.3 106L174.4 106L174.4 106L174.4 106L174.4 106L174.5 106L174.5 106L174.5 106L174.6 106.1L174.6 106.1L174.6 106.1L174.7 106.1L174.7 106.1L174.7 106.1L174.7 106.1L174.8 106.2L174.8 106.2L174.8 106.2L174.9 106.2L174.9 106.2L174.9 106.3L174.9 106.3L175 106.3L175 106.3L175 106.3L175 106.3L175 106.4L175.1 106.4L175.1 106.4L175.1 106.4L175.1 106.4L175.1 106.5L175.2 106.5L175.2 106.5L175.2 106.5L175.2 106.5L175.2 106.6L175.3 106.6L175.3 106.6L175.3 106.6L175.3 106.7L175.3 106.7L175.3 106.7L175.4 106.7L175.4 106.7L175.4 106.7L175.4 106.8L175.4 106.8L175.4 106.8L175.5 106.8L175.5 106.8L175.5 106.9L175.5 106.9L175.5 106.9L175.5 106.9L175.5 106.9L175.6 107L175.6 107L175.6 107L175.6 107L175.6 107.1L175.6 107.1L175.6 107.1L175.7 107.1L175.7 107.1L175.7 107.1L175.7 107.2L175.7 107.2L175.7 107.2L175.7 107.2L175.7 107.2L175.7 107.3L175.7 107.3L175.7 107.3L175.7 107.3L175.8 107.4L175.8 107.4L175.8 107.4L175.8 107.4L175.8 107.4L175.8 107.5L175.8 107.5L175.8 107.5L175.8 107.5L175.8 107.5L175.8 107.6L175.8 107.6L175.8 107.6L175.8 107.6L175.8 107.6L175.8 107.7L175.8 107.7L175.8 107.7L175.8 107.7L175.8 107.7L175.8 107.8L175.8 107.8L175.8 107.8L175.8 107.8L175.8 107.8L175.8 107.9L175.8 107.9L175.8 107.9L175.8 107.9L175.8 107.9L175.8 107.9L175.8 108L175.8 108L175.8 108L175.8 108L175.8 108L175.7 108L175.7 108L175.7 108.1L175.7 108.1L175.7 108.1L175.7 108.1L175.7 108.1L175.7 108.1L175.7 108.2L175.7 108.2L175.7 108.2L175.7 108.2L175.7 108.2L175.6 108.2L175.6 108.2L175.6 108.2L175.6 108.2L175.6 108.3L175.6 108.3L175.6 108.3L175.6 108.3L175.6 108.3L175.6 108.3L175.6 108.3L175.6 108.3L175.5 108.3L175.5 108.3L175.5 108.4L175.5 108.4L175.5 108.4L175.5 108.4L175.5 108.4L175.5 108.4L175.5 108.4L175.5 108.4L175.5 108.4L175.5 108.4L175.5 108.4L175.5 108.4L175.5 108.4L175.5 108.4L175.4 108.4L175.4 108.4L175.4 108.4L175.4 108.4L175.3 108.5L175.3 108.5L175.3 108.5L175.2 108.5L175.2 108.5L175.2 108.5L175.1 108.5L175.2 110.6L175.2 110.6L175.2 110.6L175.2 110.6L175.2 110.6L175.3 110.6L175.3 110.7L175.3 110.7L175.4 110.7L175.4 110.7L175.4 110.7L175.5 110.7L175.5 110.7L175.6 110.7L175.7 110.7L175.7 110.7L175.8 110.7L175.9 110.7L175.9 110.7L176 110.7L176.1 110.6L176.2 110.6L176.2 110.6L176.3 110.6L176.3 110.6L176.4 110.6L176.4 110.6L176.5 110.6L176.5 110.5L176.6 110.5L176.6 110.5L176.7 110.5L176.8 110.4L176.8 110.4L176.9 110.4L176.9 110.4L177 110.3L177 110.3L177.1 110.3L177.2 110.2L177.2 110.2L177.3 110.2L177.3 110.1L177.4 110.1L177.4 110.1L177.5 110L177.5 110L177.6 110L177.6 109.9L177.7 109.9L177.7 109.8L177.7 109.8L177.8 109.7L177.8 109.7L177.9 109.6L177.9 109.6L178 109.5L178 109.5L178.1 109.4L178.1 109.4L178.2 109.3L178.2 109.2L178.2 109.2L178.3 109.1L178.3 109.1L178.3 109L178.4 109L178.4 108.9L178.4 108.8L178.5 108.8L178.5 108.7L178.5 108.6L178.6 108.6L178.6 108.5L178.6 108.4L178.7 108.4L178.7 108.3L178.7 108.2L178.7 108.1L178.8 108.1L178.8 108L178.8 107.9L178.8 107.9L178.8 107.8L178.8 107.7L178.8 107.6L178.9 107.6L178.9 107.5L178.9 107.4L178.9 107.3L178.9 107.3L178.9 107.2L178.9 107.1L178.9 107L178.9 106.9L178.9 106.9L178.9 106.8L178.9 106.7L178.9 106.6L178.9 106.5L178.9 106.4L178.9 106.3L178.9 106.3L178.8 106.2L178.8 106.1L178.8 106L178.8 105.9L178.8 105.9L178.8 105.8L178.7 105.7L178.7 105.6L178.7 105.5L178.7 105.5L178.6 105.4L178.6 105.3L178.6 105.2L178.5 105.1L178.5 105L178.5 104.9L178.4 104.9L178.4 104.8L178.3 104.7L178.3 104.6L178.2 104.6L178.2 104.5L178.1 104.4L178.1 104.4L178 104.3L178 104.2L177.9 104.1L177.8 104.1L177.8 104L177.7 103.9L177.7 103.9L177.6 103.8L177.5 103.7L177.5 103.7L177.4 103.6L177.3 103.6L177.2 103.5L177.2 103.4L177.1 103.4L177 103.3L176.9 103.3L176.9 103.2L176.8 103.2L176.7 103.1L176.6 103.1L176.5 103L176.5 103L176.4 102.9L176.3 102.9L176.2 102.8L176.1 102.8L176 102.8L175.9 102.7L175.8 102.7L175.7 102.6L175.6 102.6L175.5 102.6L175.5 102.6L175.4 102.5L175.3 102.5L175.2 102.5L175.1 102.4L175 102.4L174.9 102.4L174.8 102.4L174.7 102.4L174.6 102.4L174.5 102.3L174.4 102.3L174.3 102.3L174.2 102.3L174.1 102.3L174 102.3L173.9 102.3L173.8 102.3L173.7 102.3L173.6 102.3L173.5 102.3L173.4 102.3L173.3 102.3L173.2 102.3L173.1 102.3L173 102.3L172.8 102.4L172.7 102.4L172.6 102.4L172.5 102.4L172.4 102.4L172.3 102.5L172.2 102.5L172.1 102.5L172 102.5L171.9 102.6L171.8 102.6L171.7 102.6L171.6 102.7L171.5 102.7L171.4 102.8L171.3 102.8L171.2 102.8L171.1 102.9L171 102.9L170.9 103L170.8 103L170.7 103.1L170.6 103.1L170.5 103.2L170.5 103.3L170.4 103.3L170.3 103.4L170.2 103.4L170.1 103.5L170 103.6L169.9 103.7L169.8 103.7L169.7 103.8L169.6 103.9L169.6 103.9L169.5 104L169.4 104.1L169.3 104.2L169.2 104.3L169.2 104.3L169.1 104.4L169 104.5L168.9 104.6L168.9 104.7L168.8 104.8L168.7 104.9L168.7 105L168.6 105.1L168.5 105.2L168.5 105.3L168.4 105.4L168.3 105.5L168.3 105.6L168.2 105.7L168.2 105.8L168.1 105.9L168.1 106L168 106.1L168 106.2L167.9 106.3L167.9 106.4L167.8 106.5L167.8 106.6L167.7 106.7L167.7 106.9L167.7 107L167.6 107.1L167.6 107.2L167.6 107.3L167.5 107.4L167.5 107.6L167.5 107.7L167.5 107.8L167.4 107.9L167.4 108L167.4 108.2L167.4 108.3L167.4 108.4L167.4 108.5L167.4 108.7L167.4 108.8L167.4 108.9L167.4 109L167.4 109.1L167.4 109.3L167.4 109.4L167.4 109.5L167.4 109.6L167.4 109.8L167.4 109.9L167.4 110L167.4 110.2L167.5 110.3L167.5 110.4L167.5 110.5L167.5 110.3L167.5 109.8L167.8 109.3L168.3 108.9L168.6 108.7L168.8 108.6L168.8 108.6L168.5 108.7L168.1 108.9L167.5 109.5L167.2 110.4L167.3 110.9L167.4 111.3L167.5 111.5L167.6 111.8L167.8 112L167.9 112.2L168.1 112.5L168.3 112.8L168.6 113.1L168.9 113.5L169.3 113.9L169.6 114.4L170 114.8L170.5 115.3L170.9 115.8L171.4 116.3L171.9 116.8L172.4 117.4L173 117.9L173.5 118.6L174.1 119.2L174.6 119.8L175.2 120.5L175.7 121.2L176.3 121.9L176.9 122.6L177.4 123.4L178 124.1L178.6 124.9L179.1 125.8L179.8 126.7L180.4 127.6L181 128.6L181.7 129.6L182.3 130.6L183 131.6L183.7 132.7L184.4 133.8L185.1 134.9L185.7 136.1L186.4 137.2L187.1 138.3L187.7 139.5L188.3 140.6L188.9 141.8L189.5 143L190.1 144.1L190.6 145.2L191.1 146.4L191.6 147.5L192 148.7L192.5 150L192.9 151.3L193.3 152.6L193.7 154L194.1 155.4L194.5 156.7L194.9 158.1L195.3 159.5L195.6 160.8L195.9 162.1L196.2 163.4L196.5 164.6L196.8 165.7L197.1 166.7L197.3 167.7L197.5 168.6L197.7 169.4L197.9 170Z" fill="#1d1d22"/><g transform="translate(400 0) scale(-1 1)"><path d="M198.1 170L198 169.3L197.8 168.5L197.6 167.7L197.5 166.7L197.3 165.6L197.1 164.4L196.9 163.2L196.7 161.9L196.5 160.6L196.2 159.3L196 157.9L195.7 156.5L195.4 155.1L195.1 153.6L194.8 152.2L194.5 150.8L194.1 149.5L193.7 148.1L193.3 146.9L192.9 145.6L192.5 144.5L192 143.3L191.5 142L191 140.8L190.4 139.6L189.9 138.4L189.3 137.2L188.7 136L188.1 134.8L187.4 133.6L186.8 132.4L186.2 131.3L185.6 130.1L184.9 129L184.3 127.9L183.7 126.9L183.1 125.9L182.5 124.9L182 124L181.4 123.1L180.9 122.2L180.3 121.3L179.7 120.5L179.1 119.7L178.5 118.9L177.9 118.2L177.4 117.5L176.8 116.8L176.2 116.2L175.6 115.5L175.1 114.9L174.6 114.4L174.1 113.8L173.6 113.3L173.1 112.8L172.7 112.4L172.3 112L172 111.6L171.7 111.2L171.4 110.9L171.2 110.6L171 110.3L170.9 110.1L170.7 110L170.7 109.9L170.7 109.9L170.7 109.9L170.8 110.1L170.8 110.6L170.6 111.4L170 111.9L169.6 112.1L169.5 112.2L169.5 112.2L169.8 112.1L170.2 111.9L170.7 111.4L171 110.8L171.1 110.2L171 109.9L171 109.7L171 109.7L171 109.6L171 109.6L171 109.5L171 109.4L171 109.4L171 109.3L171 109.2L171 109.2L171 109.1L171 109L171 109L171 108.9L171 108.8L171 108.8L171 108.7L171 108.7L171 108.6L171 108.5L171 108.5L171 108.4L171 108.4L171 108.3L171 108.3L171.1 108.2L171.1 108.1L171.1 108.1L171.1 108L171.1 108L171.1 107.9L171.2 107.9L171.2 107.8L171.2 107.7L171.2 107.7L171.3 107.6L171.3 107.6L171.3 107.5L171.3 107.5L171.4 107.4L171.4 107.4L171.4 107.3L171.4 107.3L171.5 107.3L171.5 107.2L171.5 107.2L171.5 107.1L171.6 107.1L171.6 107L171.6 107L171.7 106.9L171.7 106.9L171.7 106.9L171.8 106.8L171.8 106.8L171.9 106.7L171.9 106.7L171.9 106.7L172 106.6L172 106.6L172 106.6L172.1 106.5L172.1 106.5L172.1 106.5L172.2 106.4L172.2 106.4L172.3 106.4L172.3 106.4L172.3 106.3L172.4 106.3L172.4 106.3L172.5 106.3L172.5 106.2L172.5 106.2L172.6 106.2L172.6 106.2L172.7 106.1L172.7 106.1L172.8 106.1L172.8 106.1L172.8 106.1L172.9 106L172.9 106L173 106L173 106L173 106L173.1 106L173.1 106L173.2 106L173.2 106L173.3 105.9L173.3 105.9L173.3 105.9L173.4 105.9L173.4 105.9L173.5 105.9L173.5 105.9L173.6 105.9L173.6 105.9L173.6 105.9L173.7 105.9L173.7 105.9L173.7 105.9L173.8 105.9L173.8 105.9L173.9 105.9L173.9 105.9L173.9 105.9L174 105.9L174 105.9L174.1 105.9L174.1 105.9L174.1 105.9L174.2 105.9L174.2 105.9L174.2 106L174.3 106L174.3 106L174.4 106L174.4 106L174.4 106L174.4 106L174.5 106L174.5 106L174.5 106L174.6 106.1L174.6 106.1L174.6 106.1L174.7 106.1L174.7 106.1L174.7 106.1L174.7 106.1L174.8 106.2L174.8 106.2L174.8 106.2L174.9 106.2L174.9 106.2L174.9 106.3L174.9 106.3L175 106.3L175 106.3L175 106.3L175 106.3L175 106.4L175.1 106.4L175.1 106.4L175.1 106.4L175.1 106.4L175.1 106.5L175.2 106.5L175.2 106.5L175.2 106.5L175.2 106.5L175.2 106.6L175.3 106.6L175.3 106.6L175.3 106.6L175.3 106.7L175.3 106.7L175.3 106.7L175.4 106.7L175.4 106.7L175.4 106.7L175.4 106.8L175.4 106.8L175.4 106.8L175.5 106.8L175.5 106.8L175.5 106.9L175.5 106.9L175.5 106.9L175.5 106.9L175.5 106.9L175.6 107L175.6 107L175.6 107L175.6 107L175.6 107.1L175.6 107.1L175.6 107.1L175.7 107.1L175.7 107.1L175.7 107.1L175.7 107.2L175.7 107.2L175.7 107.2L175.7 107.2L175.7 107.2L175.7 107.3L175.7 107.3L175.7 107.3L175.7 107.3L175.8 107.4L175.8 107.4L175.8 107.4L175.8 107.4L175.8 107.4L175.8 107.5L175.8 107.5L175.8 107.5L175.8 107.5L175.8 107.5L175.8 107.6L175.8 107.6L175.8 107.6L175.8 107.6L175.8 107.6L175.8 107.7L175.8 107.7L175.8 107.7L175.8 107.7L175.8 107.7L175.8 107.8L175.8 107.8L175.8 107.8L175.8 107.8L175.8 107.8L175.8 107.9L175.8 107.9L175.8 107.9L175.8 107.9L175.8 107.9L175.8 107.9L175.8 108L175.8 108L175.8 108L175.8 108L175.8 108L175.7 108L175.7 108L175.7 108.1L175.7 108.1L175.7 108.1L175.7 108.1L175.7 108.1L175.7 108.1L175.7 108.2L175.7 108.2L175.7 108.2L175.7 108.2L175.7 108.2L175.6 108.2L175.6 108.2L175.6 108.2L175.6 108.2L175.6 108.3L175.6 108.3L175.6 108.3L175.6 108.3L175.6 108.3L175.6 108.3L175.6 108.3L175.6 108.3L175.5 108.3L175.5 108.3L175.5 108.4L175.5 108.4L175.5 108.4L175.5 108.4L175.5 108.4L175.5 108.4L175.5 108.4L175.5 108.4L175.5 108.4L175.5 108.4L175.5 108.4L175.5 108.4L175.5 108.4L175.5 108.4L175.4 108.4L175.4 108.4L175.4 108.4L175.4 108.4L175.3 108.5L175.3 108.5L175.3 108.5L175.2 108.5L175.2 108.5L175.2 108.5L175.1 108.5L175.2 110.6L175.2 110.6L175.2 110.6L175.2 110.6L175.2 110.6L175.3 110.6L175.3 110.7L175.3 110.7L175.4 110.7L175.4 110.7L175.4 110.7L175.5 110.7L175.5 110.7L175.6 110.7L175.7 110.7L175.7 110.7L175.8 110.7L175.9 110.7L175.9 110.7L176 110.7L176.1 110.6L176.2 110.6L176.2 110.6L176.3 110.6L176.3 110.6L176.4 110.6L176.4 110.6L176.5 110.6L176.5 110.5L176.6 110.5L176.6 110.5L176.7 110.5L176.8 110.4L176.8 110.4L176.9 110.4L176.9 110.4L177 110.3L177 110.3L177.1 110.3L177.2 110.2L177.2 110.2L177.3 110.2L177.3 110.1L177.4 110.1L177.4 110.1L177.5 110L177.5 110L177.6 110L177.6 109.9L177.7 109.9L177.7 109.8L177.7 109.8L177.8 109.7L177.8 109.7L177.9 109.6L177.9 109.6L178 109.5L178 109.5L178.1 109.4L178.1 109.4L178.2 109.3L178.2 109.2L178.2 109.2L178.3 109.1L178.3 109.1L178.3 109L178.4 109L178.4 108.9L178.4 108.8L178.5 108.8L178.5 108.7L178.5 108.6L178.6 108.6L178.6 108.5L178.6 108.4L178.7 108.4L178.7 108.3L178.7 108.2L178.7 108.1L178.8 108.1L178.8 108L178.8 107.9L178.8 107.9L178.8 107.8L178.8 107.7L178.8 107.6L178.9 107.6L178.9 107.5L178.9 107.4L178.9 107.3L178.9 107.3L178.9 107.2L178.9 107.1L178.9 107L178.9 106.9L178.9 106.9L178.9 106.8L178.9 106.7L178.9 106.6L178.9 106.5L178.9 106.4L178.9 106.3L178.9 106.3L178.8 106.2L178.8 106.1L178.8 106L178.8 105.9L178.8 105.9L178.8 105.8L178.7 105.7L178.7 105.6L178.7 105.5L178.7 105.5L178.6 105.4L178.6 105.3L178.6 105.2L178.5 105.1L178.5 105L178.5 104.9L178.4 104.9L178.4 104.8L178.3 104.7L178.3 104.6L178.2 104.6L178.2 104.5L178.1 104.4L178.1 104.4L178 104.3L178 104.2L177.9 104.1L177.8 104.1L177.8 104L177.7 103.9L177.7 103.9L177.6 103.8L177.5 103.7L177.5 103.7L177.4 103.6L177.3 103.6L177.2 103.5L177.2 103.4L177.1 103.4L177 103.3L176.9 103.3L176.9 103.2L176.8 103.2L176.7 103.1L176.6 103.1L176.5 103L176.5 103L176.4 102.9L176.3 102.9L176.2 102.8L176.1 102.8L176 102.8L175.9 102.7L175.8 102.7L175.7 102.6L175.6 102.6L175.5 102.6L175.5 102.6L175.4 102.5L175.3 102.5L175.2 102.5L175.1 102.4L175 102.4L174.9 102.4L174.8 102.4L174.7 102.4L174.6 102.4L174.5 102.3L174.4 102.3L174.3 102.3L174.2 102.3L174.1 102.3L174 102.3L173.9 102.3L173.8 102.3L173.7 102.3L173.6 102.3L173.5 102.3L173.4 102.3L173.3 102.3L173.2 102.3L173.1 102.3L173 102.3L172.8 102.4L172.7 102.4L172.6 102.4L172.5 102.4L172.4 102.4L172.3 102.5L172.2 102.5L172.1 102.5L172 102.5L171.9 102.6L171.8 102.6L171.7 102.6L171.6 102.7L171.5 102.7L171.4 102.8L171.3 102.8L171.2 102.8L171.1 102.9L171 102.9L170.9 103L170.8 103L170.7 103.1L170.6 103.1L170.5 103.2L170.5 103.3L170.4 103.3L170.3 103.4L170.2 103.4L170.1 103.5L170 103.6L169.9 103.7L169.8 103.7L169.7 103.8L169.6 103.9L169.6 103.9L169.5 104L169.4 104.1L169.3 104.2L169.2 104.3L169.2 104.3L169.1 104.4L169 104.5L168.9 104.6L168.9 104.7L168.8 104.8L168.7 104.9L168.7 105L168.6 105.1L168.5 105.2L168.5 105.3L168.4 105.4L168.3 105.5L168.3 105.6L168.2 105.7L168.2 105.8L168.1 105.9L168.1 106L168 106.1L168 106.2L167.9 106.3L167.9 106.4L167.8 106.5L167.8 106.6L167.7 106.7L167.7 106.9L167.7 107L167.6 107.1L167.6 107.2L167.6 107.3L167.5 107.4L167.5 107.6L167.5 107.7L167.5 107.8L167.4 107.9L167.4 108L167.4 108.2L167.4 108.3L167.4 108.4L167.4 108.5L167.4 108.7L167.4 108.8L167.4 108.9L167.4 109L167.4 109.1L167.4 109.3L167.4 109.4L167.4 109.5L167.4 109.6L167.4 109.8L167.4 109.9L167.4 110L167.4 110.2L167.5 110.3L167.5 110.4L167.5 110.5L167.5 110.3L167.5 109.8L167.8 109.3L168.3 108.9L168.6 108.7L168.8 108.6L168.8 108.6L168.5 108.7L168.1 108.9L167.5 109.5L167.2 110.4L167.3 110.9L167.4 111.3L167.5 111.5L167.6 111.8L167.8 112L167.9 112.2L168.1 112.5L168.3 112.8L168.6 113.1L168.9 113.5L169.3 113.9L169.6 114.4L170 114.8L170.5 115.3L170.9 115.8L171.4 116.3L171.9 116.8L172.4 117.4L173 117.9L173.5 118.6L174.1 119.2L174.6 119.8L175.2 120.5L175.7 121.2L176.3 121.9L176.9 122.6L177.4 123.4L178 124.1L178.6 124.9L179.1 125.8L179.8 126.7L180.4 127.6L181 128.6L181.7 129.6L182.3 130.6L183 131.6L183.7 132.7L184.4 133.8L185.1 134.9L185.7 136.1L186.4 137.2L187.1 138.3L187.7 139.5L188.3 140.6L188.9 141.8L189.5 143L190.1 144.1L190.6 145.2L191.1 146.4L191.6 147.5L192 148.7L192.5 150L192.9 151.3L193.3 152.6L193.7 154L194.1 155.4L194.5 156.7L194.9 158.1L195.3 159.5L195.6 160.8L195.9 162.1L196.2 163.4L196.5 164.6L196.8 165.7L197.1 166.7L197.3 167.7L197.5 168.6L197.7 169.4L197.9 170Z" fill="#1d1d22"/></g></g><path d="M118 202C130 186 160 180 182 192" fill="none" stroke="#6b4c35" stroke-width="4.5" stroke-linecap="round" stroke-linejoin="round"/><path d="M282 202C270 186 240 180 218 192" fill="none" stroke="#6b4c35" stroke-width="4.5" stroke-linecap="round" stroke-linejoin="round"/><path d="M120 226C134 238 166 238 180 227" fill="none" stroke="#5b4636" stroke-width="2.2" stroke-linecap="round" stroke-linejoin="round"/><path d="M280 226C266 238 234 238 220 227" fill="none" stroke="#5b4636" stroke-width="2.2" stroke-linecap="round" stroke-linejoin="round"/><path d="M129.0 230.5l3.0 7" fill="none" stroke="#5b4636" stroke-width="1.4" stroke-linecap="round" stroke-linejoin="round"/><path d="M139.2 234.4l1.5 7" fill="none" stroke="#5b4636" stroke-width="1.4" stroke-linecap="round" stroke-linejoin="round"/><path d="M149.4 236.0l0.0 7" fill="none" stroke="#5b4636" stroke-width="1.4" stroke-linecap="round" stroke-linejoin="round"/><path d="M159.6 234.8l-1.5 7" fill="none" stroke="#5b4636" stroke-width="1.4" stroke-linecap="round" stroke-linejoin="round"/><path d="M169.8 231.1l-3.0 7" fill="none" stroke="#5b4636" stroke-width="1.4" stroke-linecap="round" stroke-linejoin="round"/><path d="M271.0 230.5l-3.0 7" fill="none" stroke="#5b4636" stroke-width="1.4" stroke-linecap="round" stroke-linejoin="round"/><path d="M260.8 234.4l-1.5 7" fill="none" stroke="#5b4636" stroke-width="1.4" stroke-linecap="round" stroke-linejoin="round"/><path d="M250.6 236.0l0.0 7" fill="none" stroke="#5b4636" stroke-width="1.4" stroke-linecap="round" stroke-linejoin="round"/><path d="M240.4 234.8l1.5 7" fill="none" stroke="#5b4636" stroke-width="1.4" stroke-linecap="round" stroke-linejoin="round"/><path d="M230.2 231.1l3.0 7" fill="none" stroke="#5b4636" stroke-width="1.4" stroke-linecap="round" stroke-linejoin="round"/><path d="M193 236C192 262 186 284 184 296M184 300C190 311 210 311 216 300M207 236C208 262 214 284 216 296" fill="none" stroke="#8a7462" stroke-width="1.8" stroke-linecap="round" stroke-linejoin="round"/><path d="M166 350C178 341 191 338 200 344C209 338 222 341 234 350C215 355 185 355 166 350Z" fill="#c9787a" stroke="#5b4636" stroke-width="1.4"/><path d="M166 350C185 355 215 355 234 350C224 371 176 371 166 350Z" fill="#d98b8c" stroke="#5b4636" stroke-width="1.4"/><path d="M200 70V440" stroke="#7a8794" stroke-width="2" stroke-dasharray="6 6"/><path d="M84 128H316" stroke="#7a8794" stroke-width="1.6" stroke-dasharray="4 6"/></svg><text x="370" y="72" text-anchor="start" font-family="system-ui,Segoe UI,Arial,sans-serif" font-size="15" font-weight="700" fill="none" stroke="#fff" stroke-width="4" stroke-linejoin="round" opacity="0.9">Wing tips level</text><text x="370" y="72" text-anchor="start" font-family="system-ui,Segoe UI,Arial,sans-serif" font-size="15" font-weight="700" fill="#2b2f3a">Wing tips level</text><path d="M366 74L334 82" fill="none" stroke="#6b7280" stroke-width="2" stroke-linecap="round"/><path d="M341.7 75.6L334 82L343.8 84" fill="none" stroke="#6b7280" stroke-width="2" stroke-linecap="round" stroke-linejoin="round"/><text x="370" y="152" text-anchor="start" font-family="system-ui,Segoe UI,Arial,sans-serif" font-size="15" font-weight="700" fill="none" stroke="#fff" stroke-width="4" stroke-linejoin="round" opacity="0.9">Upper wings: brows</text><text x="370" y="152" text-anchor="start" font-family="system-ui,Segoe UI,Arial,sans-serif" font-size="15" font-weight="700" fill="#2b2f3a">Upper wings: brows</text><text x="370" y="172" text-anchor="start" font-family="system-ui,Segoe UI,Arial,sans-serif" font-size="15" fill="none" stroke="#fff" stroke-width="4" stroke-linejoin="round" opacity="0.9">and closed eyelids</text><text x="370" y="172" text-anchor="start" font-family="system-ui,Segoe UI,Arial,sans-serif" font-size="15" fill="#2b2f3a">and closed eyelids</text><path d="M366 158L300 140" fill="none" stroke="#6b7280" stroke-width="2" stroke-linecap="round"/><path d="M309.8 138.2L300 140L307.5 146.6" fill="none" stroke="#6b7280" stroke-width="2" stroke-linecap="round" stroke-linejoin="round"/><text x="370" y="232" text-anchor="start" font-family="system-ui,Segoe UI,Arial,sans-serif" font-size="15" font-weight="700" fill="none" stroke="#fff" stroke-width="4" stroke-linejoin="round" opacity="0.9">Body on the</text><text x="370" y="232" text-anchor="start" font-family="system-ui,Segoe UI,Arial,sans-serif" font-size="15" font-weight="700" fill="#2b2f3a">Body on the</text><text x="370" y="252" text-anchor="start" font-family="system-ui,Segoe UI,Arial,sans-serif" font-size="15" font-weight="700" fill="none" stroke="#fff" stroke-width="4" stroke-linejoin="round" opacity="0.9">center line</text><text x="370" y="252" text-anchor="start" font-family="system-ui,Segoe UI,Arial,sans-serif" font-size="15" font-weight="700" fill="#2b2f3a">center line</text><path d="M366 238L192 222" fill="none" stroke="#6b7280" stroke-width="2" stroke-linecap="round"/><path d="M201.4 218.5L192 222L200.6 227.2" fill="none" stroke="#6b7280" stroke-width="2" stroke-linecap="round" stroke-linejoin="round"/><text x="370" y="312" text-anchor="start" font-family="system-ui,Segoe UI,Arial,sans-serif" font-size="15" font-weight="700" fill="none" stroke="#fff" stroke-width="4" stroke-linejoin="round" opacity="0.9">Lower wings: cheeks,</text><text x="370" y="312" text-anchor="start" font-family="system-ui,Segoe UI,Arial,sans-serif" font-size="15" font-weight="700" fill="#2b2f3a">Lower wings: cheeks,</text><text x="370" y="332" text-anchor="start" font-family="system-ui,Segoe UI,Arial,sans-serif" font-size="15" fill="none" stroke="#fff" stroke-width="4" stroke-linejoin="round" opacity="0.9">below the lashes</text><text x="370" y="332" text-anchor="start" font-family="system-ui,Segoe UI,Arial,sans-serif" font-size="15" fill="#2b2f3a">below the lashes</text><path d="M366 318L300 300" fill="none" stroke="#6b7280" stroke-width="2" stroke-linecap="round"/><path d="M309.8 298.2L300 300L307.5 306.6" fill="none" stroke="#6b7280" stroke-width="2" stroke-linecap="round" stroke-linejoin="round"/>
</svg>
