<?xml version="1.0" encoding="UTF-8"?>
<svg xmlns="http://www.w3.org/2000/svg" width="210mm" height="297mm" viewBox="0 0 210 297">
<title>Project 6: festival eye</title>
<rect width="210" height="297" fill="#fff"/>
<text x="12" y="16" font-family="Helvetica,Arial,sans-serif" font-size="4.6" fill="#1f2a44" text-anchor="start" font-weight="700">Project 6: festival eye</text>
<text x="12" y="21.5" font-family="Helvetica,Arial,sans-serif" font-size="3" fill="#9aa1ad" text-anchor="start">Top: trace the gray design on both eyes. Bottom: paint it yourself from the gray start dots. Eye-safe products only inside the red dotted line.</text>
<text x="146" y="16" font-family="Helvetica,Arial,sans-serif" font-size="3" fill="#9aa1ad" text-anchor="end">Name:</text>
<line x1="148" y1="16.6" x2="198" y2="16.6" stroke="#c9ced6" stroke-width="0.25"/>
<line x1="12" y1="287" x2="112" y2="287" stroke="#9aa1ad" stroke-width="0.35"/>
<line x1="12" y1="284.8" x2="12" y2="287" stroke="#9aa1ad" stroke-width="0.3"/>
<line x1="22" y1="285.8" x2="22" y2="287" stroke="#9aa1ad" stroke-width="0.3"/>
<line x1="32" y1="285.8" x2="32" y2="287" stroke="#9aa1ad" stroke-width="0.3"/>
<line x1="42" y1="285.8" x2="42" y2="287" stroke="#9aa1ad" stroke-width="0.3"/>
<line x1="52" y1="285.8" x2="52" y2="287" stroke="#9aa1ad" stroke-width="0.3"/>
<line x1="62" y1="284.8" x2="62" y2="287" stroke="#9aa1ad" stroke-width="0.3"/>
<line x1="72" y1="285.8" x2="72" y2="287" stroke="#9aa1ad" stroke-width="0.3"/>
<line x1="82" y1="285.8" x2="82" y2="287" stroke="#9aa1ad" stroke-width="0.3"/>
<line x1="92" y1="285.8" x2="92" y2="287" stroke="#9aa1ad" stroke-width="0.3"/>
<line x1="102" y1="285.8" x2="102" y2="287" stroke="#9aa1ad" stroke-width="0.3"/>
<line x1="112" y1="284.8" x2="112" y2="287" stroke="#9aa1ad" stroke-width="0.3"/>
<text x="115" y="287.8" font-family="Helvetica,Arial,sans-serif" font-size="2.5" fill="#9aa1ad" text-anchor="start">Must measure 10 cm. If not, print at 100% ("Actual size").</text>
<rect x="12" y="27" width="186" height="123" fill="none" stroke="#e3e6eb" stroke-width="0.25"/>
<text x="15" y="32.5" font-family="Helvetica,Arial,sans-serif" font-size="3.2" fill="#1f2a44" text-anchor="start" font-weight="700">Trace</text>
<path d="M47.6 85.9L48.11 85.25L48.65 84.61L49.21 84L49.8 83.4L50.42 82.81L51.06 82.25L51.72 81.7L52.41 81.17L53.12 80.66L53.86 80.16L54.61 79.69L55.39 79.23L56.18 78.79L56.99 78.37L57.82 77.98L58.66 77.6L59.53 77.24L60.4 76.9L61.29 76.59L62.2 76.29L63.11 76.02L64.04 75.76L64.98 75.53L65.93 75.32L66.89 75.14L67.86 74.97L68.84 74.83L69.82 74.71L70.81 74.61L71.8 74.54L72.8 74.49L73.8 74.47L74.8 74.47L75.81 74.49L76.81 74.54L77.82 74.62L78.83 74.71L79.83 74.84L80.84 74.99L81.84 75.17L82.83 75.37L83.82 75.6L84.81 75.86L85.79 76.14L86.76 76.45L87.73 76.79L88.68 77.15L89.63 77.55L90.56 77.97L91.49 78.42L92.4 78.9" fill="none" stroke="#b8bdc4" stroke-width="0.3" stroke-linecap="round" stroke-linejoin="round"/>
<path d="M162.4 85.9L161.89 85.25L161.35 84.61L160.79 84L160.2 83.4L159.58 82.81L158.94 82.25L158.28 81.7L157.59 81.17L156.88 80.66L156.14 80.16L155.39 79.69L154.61 79.23L153.82 78.79L153.01 78.37L152.18 77.98L151.34 77.6L150.47 77.24L149.6 76.9L148.71 76.59L147.8 76.29L146.89 76.02L145.96 75.76L145.02 75.53L144.07 75.32L143.11 75.14L142.14 74.97L141.16 74.83L140.18 74.71L139.19 74.61L138.2 74.54L137.2 74.49L136.2 74.47L135.2 74.47L134.19 74.49L133.19 74.54L132.18 74.62L131.17 74.71L130.17 74.84L129.16 74.99L128.16 75.17L127.17 75.37L126.18 75.6L125.19 75.86L124.21 76.14L123.24 76.45L122.27 76.79L121.32 77.15L120.37 77.55L119.44 77.97L118.51 78.42L117.6 78.9" fill="none" stroke="#b8bdc4" stroke-width="0.3" stroke-linecap="round" stroke-linejoin="round"/>
<path d="M49 102.7L49.5 102.07L50.04 101.45L50.6 100.87L51.2 100.3L51.82 99.76L52.48 99.25L53.16 98.75L53.86 98.29L54.59 97.84L55.35 97.42L56.12 97.03L56.91 96.66L57.73 96.31L58.56 95.99L59.41 95.7L60.27 95.43L61.15 95.18L62.04 94.96L62.94 94.77L63.85 94.6L64.78 94.45L65.7 94.33L66.64 94.24L67.58 94.18L68.53 94.14L69.47 94.13L70.42 94.14L71.37 94.18L72.32 94.24L73.27 94.34L74.21 94.46L75.15 94.6L76.08 94.78L77.01 94.98L77.93 95.21L78.83 95.47L79.73 95.75L80.61 96.06L81.48 96.4L82.34 96.77L83.18 97.16L84 97.59L84.81 98.04L85.59 98.52L86.35 99.03L87.09 99.57L87.81 100.13L88.5 100.73L89.17 101.35L89.81 102.01L90.42 102.69L91 103.4L90.37 103.96L89.71 104.49L89.02 105.01L88.3 105.5L87.56 105.97L86.78 106.41L85.99 106.84L85.17 107.24L84.32 107.61L83.46 107.97L82.58 108.3L81.68 108.61L80.77 108.89L79.83 109.15L78.89 109.38L77.93 109.6L76.97 109.78L75.99 109.95L75 110.08L74.01 110.2L73.01 110.29L72.01 110.35L71.01 110.39L70 110.4L68.99 110.39L67.99 110.35L66.99 110.28L65.99 110.19L65 110.08L64.01 109.94L63.03 109.77L62.07 109.57L61.11 109.35L60.17 109.1L59.23 108.82L58.32 108.52L57.42 108.19L56.54 107.83L55.68 107.44L54.83 107.03L54.01 106.59L53.22 106.12L52.44 105.62L51.7 105.09L50.98 104.54L50.29 103.95L49.63 103.34L49 102.7L49 102.7Z" fill="none" stroke="#8d939c" stroke-width="0.45" stroke-linecap="round" stroke-linejoin="round"/>
<path d="M161 102.7L160.5 102.07L159.96 101.45L159.4 100.87L158.8 100.3L158.18 99.76L157.52 99.25L156.84 98.75L156.14 98.29L155.41 97.84L154.65 97.42L153.88 97.03L153.09 96.66L152.27 96.31L151.44 95.99L150.59 95.7L149.73 95.43L148.85 95.18L147.96 94.96L147.06 94.77L146.15 94.6L145.22 94.45L144.3 94.33L143.36 94.24L142.42 94.18L141.47 94.14L140.52 94.13L139.58 94.14L138.63 94.18L137.68 94.24L136.73 94.34L135.79 94.46L134.85 94.6L133.92 94.78L132.99 94.98L132.07 95.21L131.17 95.47L130.27 95.75L129.39 96.06L128.52 96.4L127.66 96.77L126.82 97.16L126 97.59L125.19 98.04L124.41 98.52L123.65 99.03L122.91 99.57L122.19 100.13L121.5 100.73L120.83 101.35L120.19 102.01L119.58 102.69L119 103.4L119.63 103.96L120.29 104.49L120.98 105.01L121.7 105.5L122.44 105.97L123.22 106.41L124.01 106.84L124.83 107.24L125.68 107.61L126.54 107.97L127.42 108.3L128.32 108.61L129.23 108.89L130.17 109.15L131.11 109.38L132.07 109.6L133.03 109.78L134.01 109.95L135 110.08L135.99 110.2L136.99 110.29L137.99 110.35L138.99 110.39L140 110.4L141.01 110.39L142.01 110.35L143.01 110.28L144.01 110.19L145 110.08L145.99 109.94L146.97 109.77L147.93 109.57L148.89 109.35L149.83 109.1L150.77 108.82L151.68 108.52L152.58 108.19L153.46 107.83L154.32 107.44L155.17 107.03L155.99 106.59L156.78 106.12L157.56 105.62L158.3 105.09L159.02 104.54L159.71 103.95L160.37 103.34L161 102.7L161 102.7Z" fill="none" stroke="#8d939c" stroke-width="0.45" stroke-linecap="round" stroke-linejoin="round"/>
<path d="M50.4 98.5L50.91 97.77L51.45 97.07L52.02 96.4L52.62 95.76L53.25 95.14L53.9 94.55L54.58 93.99L55.28 93.45L56 92.95L56.75 92.47L57.52 92.02L58.3 91.6L59.1 91.21L59.92 90.84L60.75 90.51L61.6 90.2L62.46 89.92L63.33 89.67L64.21 89.44L65.09 89.25L65.99 89.09L66.89 88.95L67.8 88.84L68.71 88.76L69.63 88.71L70.55 88.69L71.46 88.7L72.38 88.74L73.29 88.81L74.2 88.9L75.1 89.03L76 89.18L76.89 89.37L77.78 89.58L78.65 89.83L79.51 90.1L80.36 90.4L81.2 90.73L82.02 91.1L82.83 91.49L83.62 91.91L84.39 92.36L85.14 92.85L85.87 93.36L86.58 93.9L87.27 94.48L87.93 95.08L88.56 95.71L89.17 96.38L89.75 97.07L90.3 97.8" fill="none" stroke="#b8bdc4" stroke-width="0.3" stroke-linecap="round" stroke-linejoin="round"/>
<path d="M159.6 98.5L159.09 97.77L158.55 97.07L157.98 96.4L157.38 95.76L156.75 95.14L156.1 94.55L155.42 93.99L154.72 93.45L154 92.95L153.25 92.47L152.48 92.02L151.7 91.6L150.9 91.21L150.08 90.84L149.25 90.51L148.4 90.2L147.54 89.92L146.67 89.67L145.79 89.44L144.91 89.25L144.01 89.09L143.11 88.95L142.2 88.84L141.29 88.76L140.37 88.71L139.45 88.69L138.54 88.7L137.62 88.74L136.71 88.81L135.8 88.9L134.9 89.03L134 89.18L133.11 89.37L132.22 89.58L131.35 89.83L130.49 90.1L129.64 90.4L128.8 90.73L127.98 91.1L127.17 91.49L126.38 91.91L125.61 92.36L124.86 92.85L124.13 93.36L123.42 93.9L122.73 94.48L122.07 95.08L121.44 95.71L120.83 96.38L120.25 97.07L119.7 97.8" fill="none" stroke="#b8bdc4" stroke-width="0.3" stroke-linecap="round" stroke-linejoin="round"/>
<path d="M76.3 102L76.23 102.93L76.03 103.82L75.71 104.66L75.29 105.43L74.75 106.13L74.13 106.75L73.43 107.29L72.66 107.71L71.82 108.03L70.93 108.23L70 108.3L69.07 108.23L68.18 108.03L67.34 107.71L66.57 107.29L65.87 106.75L65.25 106.13L64.71 105.43L64.29 104.66L63.97 103.82L63.77 102.93L63.7 102L63.77 101.07L63.97 100.18L64.29 99.34L64.71 98.57L65.25 97.87L65.87 97.25L66.57 96.71L67.34 96.29L68.18 95.97L69.07 95.77L70 95.7L70.93 95.77L71.82 95.97L72.66 96.29L73.43 96.71L74.13 97.25L74.75 97.87L75.29 98.57L75.71 99.34L76.03 100.18L76.23 101.07L76.3 102L76.3 102Z" fill="none" stroke="#b8bdc4" stroke-width="0.3" stroke-linecap="round" stroke-linejoin="round"/>
<path d="M146.3 102L146.23 102.93L146.03 103.82L145.71 104.66L145.29 105.43L144.75 106.13L144.13 106.75L143.43 107.29L142.66 107.71L141.82 108.03L140.93 108.23L140 108.3L139.07 108.23L138.18 108.03L137.34 107.71L136.57 107.29L135.87 106.75L135.25 106.13L134.71 105.43L134.29 104.66L133.97 103.82L133.77 102.93L133.7 102L133.77 101.07L133.97 100.18L134.29 99.34L134.71 98.57L135.25 97.87L135.87 97.25L136.57 96.71L137.34 96.29L138.18 95.97L139.07 95.77L140 95.7L140.93 95.77L141.82 95.97L142.66 96.29L143.43 96.71L144.13 97.25L144.75 97.87L145.29 98.57L145.71 99.34L146.03 100.18L146.23 101.07L146.3 102L146.3 102Z" fill="none" stroke="#b8bdc4" stroke-width="0.3" stroke-linecap="round" stroke-linejoin="round"/>
<path d="M100.1 109.7L100 111.27L99.88 112.79L99.76 114.24L99.63 115.64L99.5 116.99L99.36 118.27L99.22 119.5L99.07 120.67L98.92 121.79L98.77 122.84L98.63 123.84L98.48 124.79L98.33 125.67L98.18 126.5L98.04 127.27L97.9 127.99L97.77 128.64L97.64 129.24L97.52 129.79L97.4 130.27L97.3 130.7" fill="none" stroke="#b8bdc4" stroke-width="0.3" stroke-linecap="round" stroke-linejoin="round"/>
<path d="M109.9 109.7L110 111.27L110.12 112.79L110.24 114.24L110.37 115.64L110.5 116.99L110.64 118.27L110.78 119.5L110.93 120.67L111.08 121.79L111.23 122.84L111.37 123.84L111.52 124.79L111.67 125.67L111.82 126.5L111.96 127.27L112.1 127.99L112.23 128.64L112.36 129.24L112.48 129.79L112.6 130.27L112.7 130.7" fill="none" stroke="#b8bdc4" stroke-width="0.3" stroke-linecap="round" stroke-linejoin="round"/>
<path d="M30.8 42.5L30.76 43.39L30.72 44.29L30.68 45.19L30.65 46.11L30.61 47.03L30.59 47.97L30.56 48.91L30.54 49.85L30.52 50.81L30.5 51.77L30.48 52.75L30.47 53.72L30.46 54.71L30.46 55.7L30.46 56.7L30.46 57.7L30.46 58.72L30.47 59.73L30.48 60.76L30.49 61.78L30.5 62.82L30.52 63.86L30.54 64.9L30.57 65.95L30.59 67L30.62 68.06L30.66 69.12L30.69 70.19L30.73 71.26L30.77 72.33L30.82 73.41L30.87 74.49L30.92 75.57L30.97 76.66L31.03 77.75L31.09 78.84L31.16 79.93L31.23 81.03L31.3 82.13L31.37 83.22L31.45 84.32L31.53 85.43L31.61 86.53L31.7 87.63L31.79 88.74L31.88 89.84L31.98 90.95L32.08 92.05L32.18 93.16L32.28 94.26L32.39 95.37L32.51 96.47L32.62 97.57L32.74 98.68L32.86 99.78L32.99 100.87L33.12 101.97L33.25 103.07L33.39 104.16L33.53 105.25L33.67 106.34L33.81 107.43L33.96 108.51L34.12 109.59L34.27 110.67L34.43 111.74L34.6 112.81L34.76 113.88L34.93 114.94L35.11 116L35.28 117.05L35.46 118.1L35.65 119.14L35.84 120.18L36.03 121.22L36.22 122.24L36.42 123.27L36.62 124.28L36.83 125.3L37.03 126.3L37.25 127.3L37.46 128.29L37.68 129.28L37.91 130.25L38.13 131.23L38.36 132.19L38.6 133.15L38.83 134.09L39.08 135.03L39.32 135.97L39.57 136.89L39.82 137.81L40.08 138.71L40.34 139.61L40.6 140.5" fill="none" stroke="#8d939c" stroke-width="0.45" stroke-linecap="round" stroke-linejoin="round"/>
<path d="M179.2 42.5L179.24 43.39L179.28 44.29L179.32 45.19L179.35 46.11L179.39 47.03L179.41 47.97L179.44 48.91L179.46 49.85L179.48 50.81L179.5 51.77L179.52 52.75L179.53 53.72L179.54 54.71L179.54 55.7L179.54 56.7L179.54 57.7L179.54 58.72L179.53 59.73L179.52 60.76L179.51 61.78L179.5 62.82L179.48 63.86L179.46 64.9L179.43 65.95L179.41 67L179.38 68.06L179.34 69.12L179.31 70.19L179.27 71.26L179.23 72.33L179.18 73.41L179.13 74.49L179.08 75.57L179.03 76.66L178.97 77.75L178.91 78.84L178.84 79.93L178.77 81.03L178.7 82.13L178.63 83.22L178.55 84.32L178.47 85.43L178.39 86.53L178.3 87.63L178.21 88.74L178.12 89.84L178.02 90.95L177.92 92.05L177.82 93.16L177.72 94.26L177.61 95.37L177.49 96.47L177.38 97.57L177.26 98.68L177.14 99.78L177.01 100.87L176.88 101.97L176.75 103.07L176.61 104.16L176.47 105.25L176.33 106.34L176.19 107.43L176.04 108.51L175.88 109.59L175.73 110.67L175.57 111.74L175.4 112.81L175.24 113.88L175.07 114.94L174.89 116L174.72 117.05L174.54 118.1L174.35 119.14L174.16 120.18L173.97 121.22L173.78 122.24L173.58 123.27L173.38 124.28L173.17 125.3L172.97 126.3L172.75 127.3L172.54 128.29L172.32 129.28L172.09 130.25L171.87 131.23L171.64 132.19L171.4 133.15L171.17 134.09L170.92 135.03L170.68 135.97L170.43 136.89L170.18 137.81L169.92 138.71L169.66 139.61L169.4 140.5" fill="none" stroke="#8d939c" stroke-width="0.45" stroke-linecap="round" stroke-linejoin="round"/>
<path d="M44.8 102.7L45.23 101.93L45.69 101.18L46.17 100.45L46.66 99.75L47.19 99.06L47.73 98.39L48.29 97.75L48.87 97.12L49.47 96.52L50.09 95.94L50.73 95.38L51.38 94.84L52.05 94.33L52.73 93.83L53.43 93.36L54.14 92.9L54.87 92.47L55.61 92.06L56.36 91.68L57.12 91.31L57.89 90.97L58.67 90.65L59.47 90.35L60.27 90.07L61.08 89.82L61.9 89.59L62.72 89.38L63.55 89.19L64.38 89.03L65.22 88.89L66.07 88.77L66.92 88.67L67.77 88.6L68.62 88.55L69.47 88.52L70.33 88.52L71.19 88.54L72.04 88.58L72.89 88.65L73.75 88.74L74.6 88.85L75.44 88.99L76.29 89.15L77.12 89.34L77.96 89.54L78.79 89.78L79.61 90.03L80.42 90.31L81.23 90.62L82.02 90.94L82.81 91.3L83.59 91.67L84.36 92.08L85.12 92.5L85.86 92.95L86.6 93.43L87.32 93.93L88.03 94.45L88.72 95L89.4 95.57L90.06 96.17L90.7 96.8L91.33 97.45L91.94 98.12L92.54 98.82L93.11 99.54L93.66 100.3L94.2 101.07L94.71 101.87L95.2 102.7L94.67 103.4L94.12 104.08L93.54 104.74L92.93 105.38L92.31 106L91.66 106.6L91 107.18L90.31 107.74L89.6 108.28L88.88 108.8L88.13 109.3L87.37 109.77L86.6 110.23L85.81 110.66L85 111.07L84.18 111.46L83.35 111.84L82.51 112.18L81.66 112.51L80.79 112.82L79.92 113.1L79.04 113.36L78.15 113.6L77.25 113.82L76.35 114.02L75.44 114.19L74.53 114.34L73.62 114.47L72.7 114.58L71.78 114.66L70.86 114.73L69.94 114.76L69.01 114.78L68.1 114.77L67.18 114.74L66.26 114.69L65.35 114.61L64.45 114.52L63.55 114.39L62.66 114.25L61.77 114.08L60.89 113.88L60.02 113.67L59.16 113.43L58.31 113.16L57.47 112.87L56.65 112.56L55.84 112.22L55.04 111.86L54.25 111.47L53.48 111.06L52.73 110.63L51.99 110.17L51.28 109.69L50.58 109.18L49.9 108.64L49.24 108.08L48.6 107.5L47.99 106.89L47.39 106.26L46.82 105.6L46.28 104.91L45.76 104.2L45.27 103.46L44.8 102.7L44.8 102.7Z" fill="none" stroke="#c0392b" stroke-width="0.35" stroke-linecap="round" stroke-linejoin="round" stroke-dasharray="0.6 1.2"/>
<path d="M165.2 102.7L164.77 101.93L164.31 101.18L163.83 100.45L163.34 99.75L162.81 99.06L162.27 98.39L161.71 97.75L161.13 97.12L160.53 96.52L159.91 95.94L159.27 95.38L158.62 94.84L157.95 94.33L157.27 93.83L156.57 93.36L155.86 92.9L155.13 92.47L154.39 92.06L153.64 91.68L152.88 91.31L152.11 90.97L151.33 90.65L150.53 90.35L149.73 90.07L148.92 89.82L148.1 89.59L147.28 89.38L146.45 89.19L145.62 89.03L144.78 88.89L143.93 88.77L143.08 88.67L142.23 88.6L141.38 88.55L140.52 88.52L139.67 88.52L138.81 88.54L137.96 88.58L137.11 88.65L136.25 88.74L135.4 88.85L134.56 88.99L133.71 89.15L132.88 89.34L132.04 89.54L131.21 89.78L130.39 90.03L129.58 90.31L128.77 90.62L127.98 90.94L127.19 91.3L126.41 91.67L125.64 92.08L124.88 92.5L124.14 92.95L123.4 93.43L122.68 93.93L121.97 94.45L121.28 95L120.6 95.57L119.94 96.17L119.3 96.8L118.67 97.45L118.06 98.12L117.46 98.82L116.89 99.54L116.34 100.3L115.8 101.07L115.29 101.87L114.8 102.7L115.33 103.4L115.88 104.08L116.46 104.74L117.07 105.38L117.69 106L118.34 106.6L119 107.18L119.69 107.74L120.4 108.28L121.12 108.8L121.87 109.3L122.63 109.77L123.4 110.23L124.19 110.66L125 111.07L125.82 111.46L126.65 111.84L127.49 112.18L128.34 112.51L129.21 112.82L130.08 113.1L130.96 113.36L131.85 113.6L132.75 113.82L133.65 114.02L134.56 114.19L135.47 114.34L136.38 114.47L137.3 114.58L138.22 114.66L139.14 114.73L140.06 114.76L140.99 114.78L141.9 114.77L142.82 114.74L143.74 114.69L144.65 114.61L145.55 114.52L146.45 114.39L147.34 114.25L148.23 114.08L149.11 113.88L149.98 113.67L150.84 113.43L151.69 113.16L152.53 112.87L153.35 112.56L154.16 112.22L154.96 111.86L155.75 111.47L156.52 111.06L157.27 110.63L158.01 110.17L158.72 109.69L159.42 109.18L160.1 108.64L160.76 108.08L161.4 107.5L162.01 106.89L162.61 106.26L163.18 105.6L163.72 104.91L164.24 104.2L164.73 103.46L165.2 102.7L165.2 102.7Z" fill="none" stroke="#c0392b" stroke-width="0.35" stroke-linecap="round" stroke-linejoin="round" stroke-dasharray="0.6 1.2"/>
<path d="M89.6 89.4L88.95 89.04L88.27 88.69L87.55 88.35L86.8 88.02L86.02 87.7L85.21 87.4L84.37 87.1L83.51 86.82L82.62 86.56L81.7 86.3L80.77 86.07L79.81 85.84L78.83 85.63L77.84 85.43L76.83 85.25L75.8 85.09L74.76 84.94L73.71 84.8L72.65 84.69L71.57 84.59L70.5 84.5L69.41 84.44L68.32 84.39L67.22 84.36L66.13 84.35L65.03 84.36L63.93 84.38L62.84 84.43L61.75 84.49L60.66 84.58L59.58 84.68L58.51 84.81L57.45 84.96L56.4 85.12L55.36 85.31L54.33 85.53L53.32 85.76L52.33 86.02L51.36 86.3L50.4 86.6L49.45 86.96L48.49 87.26L47.54 87.51L46.58 87.72L45.63 87.87L44.67 87.98L43.72 88.04L42.76 88.06L41.81 88.02L40.85 87.95L39.9 87.82L38.95 87.66L37.99 87.45L37.04 87.2L36.08 86.91L35.13 86.58L34.17 86.21L33.22 85.8L32.26 85.36L31.31 84.87L30.35 84.36L29.4 83.8L29.82 83.24L30.3 82.72L30.84 82.24L31.45 81.79L32.11 81.38L32.83 81L33.59 80.66L34.41 80.36L35.26 80.1L36.16 79.87L37.1 79.69L38.07 79.54L39.07 79.43L40.11 79.36L41.16 79.34L42.24 79.35L43.34 79.4L44.45 79.5L45.58 79.63L46.71 79.81L47.86 80.04L49 80.3L49.96 80.07L50.93 79.85L51.92 79.64L52.91 79.45L53.92 79.27L54.93 79.11L55.96 78.95L56.99 78.82L58.02 78.69L59.06 78.58L60.11 78.48L61.16 78.4L62.22 78.33L63.28 78.28L64.34 78.24L65.4 78.22L66.46 78.2L67.52 78.21L68.58 78.23L69.64 78.26L70.7 78.31L71.75 78.38L72.8 78.45L73.84 78.55L74.88 78.66L75.91 78.78L76.93 78.92L77.94 79.08L78.95 79.25L79.94 79.44L80.93 79.65L81.9 79.87L82.86 80.1L83.81 80.36L84.74 80.63L85.66 80.91L86.57 81.21L87.46 81.53L88.33 81.87L89.18 82.22L90.02 82.59L90.83 82.98L91.63 83.38L92.4 83.8L89.6 89.4Z" fill="none" stroke="#b4b9c2" stroke-width="0.4" stroke-linecap="round" stroke-linejoin="round"/>
<path d="M120.4 89.4L121.05 89.04L121.73 88.69L122.45 88.35L123.2 88.02L123.98 87.7L124.79 87.4L125.63 87.1L126.49 86.82L127.38 86.56L128.3 86.3L129.23 86.07L130.19 85.84L131.17 85.63L132.16 85.43L133.17 85.25L134.2 85.09L135.24 84.94L136.29 84.8L137.35 84.69L138.42 84.59L139.5 84.5L140.59 84.44L141.68 84.39L142.78 84.36L143.87 84.35L144.97 84.36L146.07 84.38L147.16 84.43L148.25 84.49L149.34 84.58L150.42 84.68L151.49 84.81L152.55 84.96L153.6 85.12L154.64 85.31L155.67 85.53L156.68 85.76L157.67 86.02L158.64 86.3L159.6 86.6L160.55 86.96L161.51 87.26L162.46 87.51L163.42 87.72L164.37 87.87L165.33 87.98L166.28 88.04L167.24 88.06L168.19 88.02L169.15 87.95L170.1 87.82L171.05 87.66L172.01 87.45L172.96 87.2L173.92 86.91L174.87 86.58L175.83 86.21L176.78 85.8L177.74 85.36L178.69 84.87L179.65 84.36L180.6 83.8L180.18 83.24L179.7 82.72L179.16 82.24L178.55 81.79L177.89 81.38L177.17 81L176.41 80.66L175.59 80.36L174.74 80.1L173.84 79.87L172.9 79.69L171.93 79.54L170.93 79.43L169.89 79.36L168.84 79.34L167.76 79.35L166.66 79.4L165.55 79.5L164.42 79.63L163.29 79.81L162.14 80.04L161 80.3L160.04 80.07L159.07 79.85L158.08 79.64L157.09 79.45L156.08 79.27L155.07 79.11L154.04 78.95L153.01 78.82L151.98 78.69L150.94 78.58L149.89 78.48L148.84 78.4L147.78 78.33L146.72 78.28L145.66 78.24L144.6 78.22L143.54 78.2L142.48 78.21L141.42 78.23L140.36 78.26L139.3 78.31L138.25 78.38L137.2 78.45L136.16 78.55L135.12 78.66L134.09 78.78L133.07 78.92L132.06 79.08L131.05 79.25L130.06 79.44L129.07 79.65L128.1 79.87L127.14 80.1L126.19 80.36L125.26 80.63L124.34 80.91L123.43 81.21L122.54 81.53L121.67 81.87L120.82 82.22L119.98 82.59L119.17 82.98L118.37 83.38L117.6 83.8L120.4 89.4Z" fill="none" stroke="#b4b9c2" stroke-width="0.4" stroke-linecap="round" stroke-linejoin="round"/>
<path d="M60.55 60.98L51.8 63.5L52.78 72.53" fill="none" stroke="#b4b9c2" stroke-width="0.4" stroke-linecap="round" stroke-linejoin="round"/>
<path d="M149.45 60.98L158.2 63.5L157.22 72.53" fill="none" stroke="#b4b9c2" stroke-width="0.4" stroke-linecap="round" stroke-linejoin="round"/>
<path d="M60.55 60.98L51.8 63.5L52.78 72.53" fill="none" stroke="#b4b9c2" stroke-width="0.4" stroke-linecap="round" stroke-linejoin="round"/>
<path d="M149.45 60.98L158.2 63.5L157.22 72.53" fill="none" stroke="#b4b9c2" stroke-width="0.4" stroke-linecap="round" stroke-linejoin="round"/>
<path d="M54.18 56.71L45.43 59.16L46.34 68.26" fill="none" stroke="#b4b9c2" stroke-width="0.4" stroke-linecap="round" stroke-linejoin="round"/>
<path d="M155.82 56.71L164.57 59.16L163.66 68.26" fill="none" stroke="#b4b9c2" stroke-width="0.4" stroke-linecap="round" stroke-linejoin="round"/>
<path d="M54.18 56.71L45.43 59.16L46.34 68.26" fill="none" stroke="#b4b9c2" stroke-width="0.4" stroke-linecap="round" stroke-linejoin="round"/>
<path d="M155.82 56.71L164.57 59.16L163.66 68.26" fill="none" stroke="#b4b9c2" stroke-width="0.4" stroke-linecap="round" stroke-linejoin="round"/>
<path d="M47.81 52.37L39.06 54.89L39.97 63.92" fill="none" stroke="#b4b9c2" stroke-width="0.4" stroke-linecap="round" stroke-linejoin="round"/>
<path d="M162.19 52.37L170.94 54.89L170.03 63.92" fill="none" stroke="#b4b9c2" stroke-width="0.4" stroke-linecap="round" stroke-linejoin="round"/>
<path d="M47.81 52.37L39.06 54.89L39.97 63.92" fill="none" stroke="#b4b9c2" stroke-width="0.4" stroke-linecap="round" stroke-linejoin="round"/>
<path d="M162.19 52.37L170.94 54.89L170.03 63.92" fill="none" stroke="#b4b9c2" stroke-width="0.4" stroke-linecap="round" stroke-linejoin="round"/>
<path d="M90.16 101.09L90.02 101.02L89.81 100.81L89.6 100.67L89.39 100.46L89.11 100.18L88.9 99.9L88.62 99.62L88.34 99.34L88.06 98.99L87.71 98.64L87.43 98.36L87.08 98.01L86.73 97.73L86.38 97.38L85.96 97.03L85.61 96.75L85.26 96.47L84.84 96.19L84.42 95.91L84.07 95.63L83.65 95.42L83.23 95.14L82.81 94.93L82.39 94.72L81.97 94.51L81.48 94.3L81.06 94.09L80.57 93.88L80.08 93.67L79.59 93.46L79.1 93.25L78.61 93.11L78.12 92.9L77.63 92.76L77.14 92.62L76.65 92.41L76.16 92.27L75.67 92.13L75.11 92.06L74.62 91.92L74.13 91.78L73.64 91.71L73.08 91.64L72.59 91.57L72.03 91.5L71.54 91.43L70.98 91.36L70.49 91.29L69.93 91.29L69.44 91.22L68.88 91.22L68.39 91.22L67.83 91.15L67.34 91.15L66.78 91.15L66.29 91.15L65.8 91.22L65.31 91.22L64.82 91.29L64.33 91.36L63.84 91.43L63.35 91.5L62.86 91.57L62.37 91.71L61.88 91.78L61.46 91.92L60.97 91.99L60.48 92.13L60.06 92.27L59.64 92.41L59.15 92.55L58.73 92.69L58.31 92.83L57.89 92.97L57.54 93.11L57.12 93.25L56.7 93.46L56.35 93.6L56 93.74L55.65 93.88L55.23 94.09L54.88 94.23L54.46 94.44L54.11 94.65L53.76 94.86L53.41 95.07L53.06 95.28L52.78 95.49L52.43 95.7L52.15 95.91L51.94 96.19L51.73 96.47L51.52 96.75L51.38 97.03L51.17 97.24L51.03 97.45L50.89 97.66L50.75 97.87L50.68 98.01L50.61 98.15L52.01 100.18L52.15 100.18L52.43 100.11L52.64 99.97L52.85 99.9L53.13 99.83L53.41 99.76L53.69 99.62L53.97 99.55L54.32 99.48L54.6 99.34L54.88 99.13L55.09 98.99L55.37 98.78L55.65 98.64L55.93 98.43L56.21 98.29L56.49 98.15L56.77 98.01L57.05 97.87L57.33 97.73L57.61 97.59L57.96 97.45L58.31 97.31L58.66 97.17L59.01 97.03L59.36 96.89L59.71 96.82L60.06 96.68L60.48 96.54L60.83 96.4L61.25 96.33L61.67 96.19L62.02 96.05L62.44 95.98L62.86 95.91L63.28 95.77L63.63 95.7L64.05 95.63L64.47 95.56L64.89 95.49L65.31 95.49L65.73 95.42L66.15 95.35L66.64 95.28L67.06 95.21L67.55 95.14L68.04 95.07L68.46 95.07L68.95 95L69.44 95L69.93 94.93L70.42 94.93L70.91 94.86L71.33 94.86L71.82 94.86L72.31 94.86L72.8 94.86L73.22 94.86L73.71 94.93L74.2 94.93L74.62 95L75.11 95.07L75.53 95.07L76.02 95.14L76.51 95.21L77 95.35L77.49 95.42L77.91 95.49L78.4 95.63L78.89 95.7L79.38 95.84L79.8 95.98L80.29 96.05L80.78 96.19L81.2 96.33L81.62 96.47L82.11 96.61L82.53 96.75L82.88 96.96L83.3 97.1L83.72 97.24L84.07 97.45L84.49 97.66L84.84 97.87L85.26 98.08L85.68 98.29L86.03 98.57L86.45 98.78L86.8 99.06L87.22 99.34L87.57 99.55L87.92 99.83L88.27 100.04L88.55 100.25L88.83 100.46L89.11 100.67L89.39 100.88L89.6 101.09L89.81 101.23L89.95 101.37L90.16 101.09Z" fill="none" stroke="#b4b9c2" stroke-width="0.4" stroke-linecap="round" stroke-linejoin="round"/>
<path d="M119.84 101.09L119.98 101.02L120.19 100.81L120.4 100.67L120.61 100.46L120.89 100.18L121.1 99.9L121.38 99.62L121.66 99.34L121.94 98.99L122.29 98.64L122.57 98.36L122.92 98.01L123.27 97.73L123.62 97.38L124.04 97.03L124.39 96.75L124.74 96.47L125.16 96.19L125.58 95.91L125.93 95.63L126.35 95.42L126.77 95.14L127.19 94.93L127.61 94.72L128.03 94.51L128.52 94.3L128.94 94.09L129.43 93.88L129.92 93.67L130.41 93.46L130.9 93.25L131.39 93.11L131.88 92.9L132.37 92.76L132.86 92.62L133.35 92.41L133.84 92.27L134.33 92.13L134.89 92.06L135.38 91.92L135.87 91.78L136.36 91.71L136.92 91.64L137.41 91.57L137.97 91.5L138.46 91.43L139.02 91.36L139.51 91.29L140.07 91.29L140.56 91.22L141.12 91.22L141.61 91.22L142.17 91.15L142.66 91.15L143.22 91.15L143.71 91.15L144.2 91.22L144.69 91.22L145.18 91.29L145.67 91.36L146.16 91.43L146.65 91.5L147.14 91.57L147.63 91.71L148.12 91.78L148.54 91.92L149.03 91.99L149.52 92.13L149.94 92.27L150.36 92.41L150.85 92.55L151.27 92.69L151.69 92.83L152.11 92.97L152.46 93.11L152.88 93.25L153.3 93.46L153.65 93.6L154 93.74L154.35 93.88L154.77 94.09L155.12 94.23L155.54 94.44L155.89 94.65L156.24 94.86L156.59 95.07L156.94 95.28L157.22 95.49L157.57 95.7L157.85 95.91L158.06 96.19L158.27 96.47L158.48 96.75L158.62 97.03L158.83 97.24L158.97 97.45L159.11 97.66L159.25 97.87L159.32 98.01L159.39 98.15L157.99 100.18L157.85 100.18L157.57 100.11L157.36 99.97L157.15 99.9L156.87 99.83L156.59 99.76L156.31 99.62L156.03 99.55L155.68 99.48L155.4 99.34L155.12 99.13L154.91 98.99L154.63 98.78L154.35 98.64L154.07 98.43L153.79 98.29L153.51 98.15L153.23 98.01L152.95 97.87L152.67 97.73L152.39 97.59L152.04 97.45L151.69 97.31L151.34 97.17L150.99 97.03L150.64 96.89L150.29 96.82L149.94 96.68L149.52 96.54L149.17 96.4L148.75 96.33L148.33 96.19L147.98 96.05L147.56 95.98L147.14 95.91L146.72 95.77L146.37 95.7L145.95 95.63L145.53 95.56L145.11 95.49L144.69 95.49L144.27 95.42L143.85 95.35L143.36 95.28L142.94 95.21L142.45 95.14L141.96 95.07L141.54 95.07L141.05 95L140.56 95L140.07 94.93L139.58 94.93L139.09 94.86L138.67 94.86L138.18 94.86L137.69 94.86L137.2 94.86L136.78 94.86L136.29 94.93L135.8 94.93L135.38 95L134.89 95.07L134.47 95.07L133.98 95.14L133.49 95.21L133 95.35L132.51 95.42L132.09 95.49L131.6 95.63L131.11 95.7L130.62 95.84L130.2 95.98L129.71 96.05L129.22 96.19L128.8 96.33L128.38 96.47L127.89 96.61L127.47 96.75L127.12 96.96L126.7 97.1L126.28 97.24L125.93 97.45L125.51 97.66L125.16 97.87L124.74 98.08L124.32 98.29L123.97 98.57L123.55 98.78L123.2 99.06L122.78 99.34L122.43 99.55L122.08 99.83L121.73 100.04L121.45 100.25L121.17 100.46L120.89 100.67L120.61 100.88L120.4 101.09L120.19 101.23L120.05 101.37L119.84 101.09Z" fill="none" stroke="#b4b9c2" stroke-width="0.4" stroke-linecap="round" stroke-linejoin="round"/>
<path d="M55.65 95.77L35 90.1L48.65 103.05L50.05 101.44L53.69 98.36L55.65 95.77Z" fill="none" stroke="#b4b9c2" stroke-width="0.4" stroke-linecap="round" stroke-linejoin="round"/>
<path d="M154.35 95.77L175 90.1L161.35 103.05L159.95 101.44L156.31 98.36L154.35 95.77Z" fill="none" stroke="#b4b9c2" stroke-width="0.4" stroke-linecap="round" stroke-linejoin="round"/>
<path d="M88.27 90.73L87.92 90.52L87.64 90.31L87.22 90.03L86.8 89.75L86.31 89.4L85.89 89.05L85.33 88.7L84.84 88.28L84.21 87.86L83.65 87.51L83.02 87.09L82.39 86.67L81.76 86.25L81.13 85.83L80.5 85.48L79.8 85.06L79.17 84.78L78.54 84.43L77.84 84.15L77.21 83.87L76.58 83.66L75.88 83.45L75.18 83.24L74.55 83.03L73.78 82.89L73.08 82.75L72.38 82.61L71.68 82.47L70.91 82.33L70.21 82.19L69.44 82.12L68.74 81.98L67.97 81.91L67.27 81.84L66.5 81.77L65.8 81.7L65.1 81.7L64.4 81.63L63.7 81.63L63 81.56L62.3 81.56L61.6 81.56L60.9 81.63L60.27 81.7L59.57 81.77L58.94 81.84L58.31 81.91L57.68 82.05L57.05 82.12L56.42 82.26L55.79 82.33L55.23 82.47L54.6 82.61L53.97 82.75L53.41 82.82L52.78 82.89L52.22 82.96L51.59 83.03L50.96 83.1L50.4 83.1L49.7 83.1L49.07 83.1L48.3 83.03L47.53 83.03L46.76 82.96L45.99 82.89L45.22 82.82L44.38 82.68L43.61 82.61L42.77 82.54L42 82.4L41.23 82.33L40.53 82.19L39.83 82.12L39.13 82.12L38.5 82.19L37.87 82.19L37.38 82.19L36.89 82.26L36.47 82.26L36.33 83.94L36.68 84.01L37.1 84.15L37.59 84.36L38.15 84.5L38.78 84.71L39.41 84.92L40.11 84.99L40.88 85.13L41.65 85.2L42.42 85.27L43.26 85.41L44.1 85.48L44.87 85.55L45.71 85.69L46.55 85.76L47.39 85.83L48.16 85.83L48.93 85.9L49.7 85.9L50.4 85.9L51.1 85.9L51.8 85.83L52.5 85.76L53.2 85.69L53.83 85.55L54.46 85.48L55.09 85.34L55.72 85.2L56.35 85.13L56.98 84.99L57.61 84.85L58.17 84.64L58.8 84.5L59.36 84.43L59.99 84.29L60.55 84.15L61.18 84.08L61.81 84.01L62.37 83.94L63 83.94L63.63 83.87L64.33 83.87L65.03 83.87L65.73 83.87L66.43 83.87L67.13 83.87L67.83 83.94L68.53 83.94L69.3 84.01L70 84.01L70.7 84.08L71.4 84.15L72.1 84.22L72.8 84.36L73.5 84.43L74.2 84.57L74.9 84.64L75.53 84.78L76.16 84.92L76.79 85.13L77.42 85.27L78.05 85.55L78.68 85.76L79.38 86.04L80.01 86.32L80.71 86.67L81.34 87.02L82.04 87.37L82.67 87.72L83.3 88.07L83.93 88.42L84.49 88.77L85.12 89.05L85.61 89.4L86.17 89.68L86.66 89.96L87.08 90.24L87.5 90.52L87.85 90.73L88.13 90.87L88.27 90.73Z" fill="none" stroke="#b4b9c2" stroke-width="0.4" stroke-linecap="round" stroke-linejoin="round"/>
<path d="M121.73 90.73L122.08 90.52L122.36 90.31L122.78 90.03L123.2 89.75L123.69 89.4L124.11 89.05L124.67 88.7L125.16 88.28L125.79 87.86L126.35 87.51L126.98 87.09L127.61 86.67L128.24 86.25L128.87 85.83L129.5 85.48L130.2 85.06L130.83 84.78L131.46 84.43L132.16 84.15L132.79 83.87L133.42 83.66L134.12 83.45L134.82 83.24L135.45 83.03L136.22 82.89L136.92 82.75L137.62 82.61L138.32 82.47L139.09 82.33L139.79 82.19L140.56 82.12L141.26 81.98L142.03 81.91L142.73 81.84L143.5 81.77L144.2 81.7L144.9 81.7L145.6 81.63L146.3 81.63L147 81.56L147.7 81.56L148.4 81.56L149.1 81.63L149.73 81.7L150.43 81.77L151.06 81.84L151.69 81.91L152.32 82.05L152.95 82.12L153.58 82.26L154.21 82.33L154.77 82.47L155.4 82.61L156.03 82.75L156.59 82.82L157.22 82.89L157.78 82.96L158.41 83.03L159.04 83.1L159.6 83.1L160.3 83.1L160.93 83.1L161.7 83.03L162.47 83.03L163.24 82.96L164.01 82.89L164.78 82.82L165.62 82.68L166.39 82.61L167.23 82.54L168 82.4L168.77 82.33L169.47 82.19L170.17 82.12L170.87 82.12L171.5 82.19L172.13 82.19L172.62 82.19L173.11 82.26L173.53 82.26L173.67 83.94L173.32 84.01L172.9 84.15L172.41 84.36L171.85 84.5L171.22 84.71L170.59 84.92L169.89 84.99L169.12 85.13L168.35 85.2L167.58 85.27L166.74 85.41L165.9 85.48L165.13 85.55L164.29 85.69L163.45 85.76L162.61 85.83L161.84 85.83L161.07 85.9L160.3 85.9L159.6 85.9L158.9 85.9L158.2 85.83L157.5 85.76L156.8 85.69L156.17 85.55L155.54 85.48L154.91 85.34L154.28 85.2L153.65 85.13L153.02 84.99L152.39 84.85L151.83 84.64L151.2 84.5L150.64 84.43L150.01 84.29L149.45 84.15L148.82 84.08L148.19 84.01L147.63 83.94L147 83.94L146.37 83.87L145.67 83.87L144.97 83.87L144.27 83.87L143.57 83.87L142.87 83.87L142.17 83.94L141.47 83.94L140.7 84.01L140 84.01L139.3 84.08L138.6 84.15L137.9 84.22L137.2 84.36L136.5 84.43L135.8 84.57L135.1 84.64L134.47 84.78L133.84 84.92L133.21 85.13L132.58 85.27L131.95 85.55L131.32 85.76L130.62 86.04L129.99 86.32L129.29 86.67L128.66 87.02L127.96 87.37L127.33 87.72L126.7 88.07L126.07 88.42L125.51 88.77L124.88 89.05L124.39 89.4L123.83 89.68L123.34 89.96L122.92 90.24L122.5 90.52L122.15 90.73L121.87 90.87L121.73 90.73Z" fill="none" stroke="#b4b9c2" stroke-width="0.4" stroke-linecap="round" stroke-linejoin="round"/>
<path d="M33.6 49.01L34.72 47.96" fill="none" stroke="#b4b9c2" stroke-width="0.4" stroke-linecap="round" stroke-linejoin="round"/>
<path d="M176.4 49.01L175.28 47.96" fill="none" stroke="#b4b9c2" stroke-width="0.4" stroke-linecap="round" stroke-linejoin="round"/>
<path d="M51.31 129.65L50.75 130.21L50.05 130.21L49.49 129.65L49.49 128.95L50.05 128.39L50.75 128.39L51.31 128.95L51.31 129.65Z" fill="none" stroke="#b4b9c2" stroke-width="0.4" stroke-linecap="round" stroke-linejoin="round"/>
<path d="M158.69 129.65L159.25 130.21L159.95 130.21L160.51 129.65L160.51 128.95L159.95 128.39L159.25 128.39L158.69 128.95L158.69 129.65Z" fill="none" stroke="#b4b9c2" stroke-width="0.4" stroke-linecap="round" stroke-linejoin="round"/>
<path d="M49.49 129.02L50.19 128.32" fill="none" stroke="#b4b9c2" stroke-width="0.4" stroke-linecap="round" stroke-linejoin="round"/>
<path d="M160.51 129.02L159.81 128.32" fill="none" stroke="#b4b9c2" stroke-width="0.4" stroke-linecap="round" stroke-linejoin="round"/>
<path d="M52.64 99.13L47.53 95.42" fill="none" stroke="#b4b9c2" stroke-width="0.4" stroke-linecap="round" stroke-linejoin="round"/>
<path d="M157.36 99.13L162.47 95.42" fill="none" stroke="#b4b9c2" stroke-width="0.4" stroke-linecap="round" stroke-linejoin="round"/>
<path d="M58.17 96.12L53.55 91.85" fill="none" stroke="#b4b9c2" stroke-width="0.4" stroke-linecap="round" stroke-linejoin="round"/>
<path d="M151.83 96.12L156.45 91.85" fill="none" stroke="#b4b9c2" stroke-width="0.4" stroke-linecap="round" stroke-linejoin="round"/>
<path d="M64.61 94.51L60.55 89.68" fill="none" stroke="#b4b9c2" stroke-width="0.4" stroke-linecap="round" stroke-linejoin="round"/>
<path d="M145.39 94.51L149.45 89.68" fill="none" stroke="#b4b9c2" stroke-width="0.4" stroke-linecap="round" stroke-linejoin="round"/>
<path d="M71.47 94.16L68.04 88.91" fill="none" stroke="#b4b9c2" stroke-width="0.4" stroke-linecap="round" stroke-linejoin="round"/>
<path d="M138.53 94.16L141.96 88.91" fill="none" stroke="#b4b9c2" stroke-width="0.4" stroke-linecap="round" stroke-linejoin="round"/>
<path d="M78.26 95.28L75.46 89.61" fill="none" stroke="#b4b9c2" stroke-width="0.4" stroke-linecap="round" stroke-linejoin="round"/>
<path d="M131.74 95.28L134.54 89.61" fill="none" stroke="#b4b9c2" stroke-width="0.4" stroke-linecap="round" stroke-linejoin="round"/>
<path d="M84.49 97.87L82.46 91.92" fill="none" stroke="#b4b9c2" stroke-width="0.4" stroke-linecap="round" stroke-linejoin="round"/>
<path d="M125.51 97.87L127.54 91.92" fill="none" stroke="#b4b9c2" stroke-width="0.4" stroke-linecap="round" stroke-linejoin="round"/>
<path d="M39.34 95.7L39.16 96.57L38.68 97.28L37.97 97.76L37.1 97.94L36.23 97.76L35.52 97.28L35.04 96.57L34.86 95.7L35.04 94.83L35.52 94.12L36.23 93.64L37.1 93.46L37.97 93.64L38.68 94.12L39.16 94.83L39.34 95.7L39.34 95.7Z" fill="none" stroke="#b4b9c2" stroke-width="0.4" stroke-linecap="round" stroke-linejoin="round"/>
<path d="M175.14 95.7L174.96 96.57L174.48 97.28L173.77 97.76L172.9 97.94L172.03 97.76L171.32 97.28L170.84 96.57L170.66 95.7L170.84 94.83L171.32 94.12L172.03 93.64L172.9 93.46L173.77 93.64L174.48 94.12L174.96 94.83L175.14 95.7L175.14 95.7Z" fill="none" stroke="#b4b9c2" stroke-width="0.4" stroke-linecap="round" stroke-linejoin="round"/>
<path d="M39.69 108.3L39.54 109.04L39.14 109.64L38.54 110.04L37.8 110.19L37.06 110.04L36.46 109.64L36.06 109.04L35.91 108.3L36.06 107.56L36.46 106.96L37.06 106.56L37.8 106.41L38.54 106.56L39.14 106.96L39.54 107.56L39.69 108.3L39.69 108.3Z" fill="none" stroke="#b4b9c2" stroke-width="0.4" stroke-linecap="round" stroke-linejoin="round"/>
<path d="M174.09 108.3L173.94 109.04L173.54 109.64L172.94 110.04L172.2 110.19L171.46 110.04L170.86 109.64L170.46 109.04L170.31 108.3L170.46 107.56L170.86 106.96L171.46 106.56L172.2 106.41L172.94 106.56L173.54 106.96L173.94 107.56L174.09 108.3L174.09 108.3Z" fill="none" stroke="#b4b9c2" stroke-width="0.4" stroke-linecap="round" stroke-linejoin="round"/>
<path d="M43.47 120.2L43.35 120.77L43.04 121.24L42.57 121.55L42 121.67L41.43 121.55L40.96 121.24L40.65 120.77L40.53 120.2L40.65 119.63L40.96 119.16L41.43 118.85L42 118.73L42.57 118.85L43.04 119.16L43.35 119.63L43.47 120.2L43.47 120.2Z" fill="none" stroke="#b4b9c2" stroke-width="0.4" stroke-linecap="round" stroke-linejoin="round"/>
<path d="M169.47 120.2L169.35 120.77L169.04 121.24L168.57 121.55L168 121.67L167.43 121.55L166.96 121.24L166.65 120.77L166.53 120.2L166.65 119.63L166.96 119.16L167.43 118.85L168 118.73L168.57 118.85L169.04 119.16L169.35 119.63L169.47 120.2L169.47 120.2Z" fill="none" stroke="#b4b9c2" stroke-width="0.4" stroke-linecap="round" stroke-linejoin="round"/>
<path d="M51.52 129.3L51.43 129.74L51.19 130.09L50.84 130.33L50.4 130.42L49.96 130.33L49.61 130.09L49.37 129.74L49.28 129.3L49.37 128.86L49.61 128.51L49.96 128.27L50.4 128.18L50.84 128.27L51.19 128.51L51.43 128.86L51.52 129.3L51.52 129.3Z" fill="none" stroke="#b4b9c2" stroke-width="0.4" stroke-linecap="round" stroke-linejoin="round"/>
<path d="M160.72 129.3L160.63 129.74L160.39 130.09L160.04 130.33L159.6 130.42L159.16 130.33L158.81 130.09L158.57 129.74L158.48 129.3L158.57 128.86L158.81 128.51L159.16 128.27L159.6 128.18L160.04 128.27L160.39 128.51L160.63 128.86L160.72 129.3L160.72 129.3Z" fill="none" stroke="#b4b9c2" stroke-width="0.4" stroke-linecap="round" stroke-linejoin="round"/>
<path d="M61.32 67.7L61.23 68.14L60.99 68.49L60.64 68.73L60.2 68.82L59.76 68.73L59.41 68.49L59.17 68.14L59.08 67.7L59.17 67.26L59.41 66.91L59.76 66.67L60.2 66.58L60.64 66.67L60.99 66.91L61.23 67.26L61.32 67.7L61.32 67.7Z" fill="none" stroke="#b4b9c2" stroke-width="0.4" stroke-linecap="round" stroke-linejoin="round"/>
<path d="M150.92 67.7L150.83 68.14L150.59 68.49L150.24 68.73L149.8 68.82L149.36 68.73L149.01 68.49L148.77 68.14L148.68 67.7L148.77 67.26L149.01 66.91L149.36 66.67L149.8 66.58L150.24 66.67L150.59 66.91L150.83 67.26L150.92 67.7L150.92 67.7Z" fill="none" stroke="#b4b9c2" stroke-width="0.4" stroke-linecap="round" stroke-linejoin="round"/>
<path d="M71.4 64.9L71.29 65.44L70.99 65.89L70.54 66.19L70 66.3L69.46 66.19L69.01 65.89L68.71 65.44L68.6 64.9L68.71 64.36L69.01 63.91L69.46 63.61L70 63.5L70.54 63.61L70.99 63.91L71.29 64.36L71.4 64.9L71.4 64.9Z" fill="none" stroke="#b4b9c2" stroke-width="0.4" stroke-linecap="round" stroke-linejoin="round"/>
<path d="M141.4 64.9L141.29 65.44L140.99 65.89L140.54 66.19L140 66.3L139.46 66.19L139.01 65.89L138.71 65.44L138.6 64.9L138.71 64.36L139.01 63.91L139.46 63.61L140 63.5L140.54 63.61L140.99 63.91L141.29 64.36L141.4 64.9L141.4 64.9Z" fill="none" stroke="#b4b9c2" stroke-width="0.4" stroke-linecap="round" stroke-linejoin="round"/>
<path d="M81.48 64.9L81.35 65.55L80.99 66.09L80.45 66.45L79.8 66.58L79.15 66.45L78.61 66.09L78.25 65.55L78.12 64.9L78.25 64.25L78.61 63.71L79.15 63.35L79.8 63.22L80.45 63.35L80.99 63.71L81.35 64.25L81.48 64.9L81.48 64.9Z" fill="none" stroke="#b4b9c2" stroke-width="0.4" stroke-linecap="round" stroke-linejoin="round"/>
<path d="M131.88 64.9L131.75 65.55L131.39 66.09L130.85 66.45L130.2 66.58L129.55 66.45L129.01 66.09L128.65 65.55L128.52 64.9L128.65 64.25L129.01 63.71L129.55 63.35L130.2 63.22L130.85 63.35L131.39 63.71L131.75 64.25L131.88 64.9L131.88 64.9Z" fill="none" stroke="#b4b9c2" stroke-width="0.4" stroke-linecap="round" stroke-linejoin="round"/>
<path d="M88.62 82.4L88.53 82.84L88.29 83.19L87.94 83.43L87.5 83.52L87.06 83.43L86.71 83.19L86.47 82.84L86.38 82.4L86.47 81.96L86.71 81.61L87.06 81.37L87.5 81.28L87.94 81.37L88.29 81.61L88.53 81.96L88.62 82.4L88.62 82.4Z" fill="none" stroke="#b4b9c2" stroke-width="0.4" stroke-linecap="round" stroke-linejoin="round"/>
<path d="M123.62 82.4L123.53 82.84L123.29 83.19L122.94 83.43L122.5 83.52L122.06 83.43L121.71 83.19L121.47 82.84L121.38 82.4L121.47 81.96L121.71 81.61L122.06 81.37L122.5 81.28L122.94 81.37L123.29 81.61L123.53 81.96L123.62 82.4L123.62 82.4Z" fill="none" stroke="#b4b9c2" stroke-width="0.4" stroke-linecap="round" stroke-linejoin="round"/>
<path d="M81.2 79.95L81.09 80.49L80.79 80.94L80.34 81.24L79.8 81.35L79.26 81.24L78.81 80.94L78.51 80.49L78.4 79.95L78.51 79.41L78.81 78.96L79.26 78.66L79.8 78.55L80.34 78.66L80.79 78.96L81.09 79.41L81.2 79.95L81.2 79.95Z" fill="none" stroke="#b4b9c2" stroke-width="0.4" stroke-linecap="round" stroke-linejoin="round"/>
<path d="M131.6 79.95L131.49 80.49L131.19 80.94L130.74 81.24L130.2 81.35L129.66 81.24L129.21 80.94L128.91 80.49L128.8 79.95L128.91 79.41L129.21 78.96L129.66 78.66L130.2 78.55L130.74 78.66L131.19 78.96L131.49 79.41L131.6 79.95L131.6 79.95Z" fill="none" stroke="#b4b9c2" stroke-width="0.4" stroke-linecap="round" stroke-linejoin="round"/>
<path d="M72.31 79.25L72.18 79.88L71.84 80.39L71.33 80.73L70.7 80.86L70.07 80.73L69.56 80.39L69.22 79.88L69.09 79.25L69.22 78.62L69.56 78.11L70.07 77.77L70.7 77.64L71.33 77.77L71.84 78.11L72.18 78.62L72.31 79.25L72.31 79.25Z" fill="none" stroke="#b4b9c2" stroke-width="0.4" stroke-linecap="round" stroke-linejoin="round"/>
<path d="M140.91 79.25L140.78 79.88L140.44 80.39L139.93 80.73L139.3 80.86L138.67 80.73L138.16 80.39L137.82 79.88L137.69 79.25L137.82 78.62L138.16 78.11L138.67 77.77L139.3 77.64L139.93 77.77L140.44 78.11L140.78 78.62L140.91 79.25L140.91 79.25Z" fill="none" stroke="#b4b9c2" stroke-width="0.4" stroke-linecap="round" stroke-linejoin="round"/>
<path d="M63.28 80.3L63.15 80.95L62.79 81.49L62.25 81.85L61.6 81.98L60.95 81.85L60.41 81.49L60.05 80.95L59.92 80.3L60.05 79.65L60.41 79.11L60.95 78.75L61.6 78.62L62.25 78.75L62.79 79.11L63.15 79.65L63.28 80.3L63.28 80.3Z" fill="none" stroke="#b4b9c2" stroke-width="0.4" stroke-linecap="round" stroke-linejoin="round"/>
<path d="M150.08 80.3L149.95 80.95L149.59 81.49L149.05 81.85L148.4 81.98L147.75 81.85L147.21 81.49L146.85 80.95L146.72 80.3L146.85 79.65L147.21 79.11L147.75 78.75L148.4 78.62L149.05 78.75L149.59 79.11L149.95 79.65L150.08 80.3L150.08 80.3Z" fill="none" stroke="#b4b9c2" stroke-width="0.4" stroke-linecap="round" stroke-linejoin="round"/>
<path d="M55.44 82.75L55.32 83.35L54.99 83.84L54.5 84.17L53.9 84.29L53.3 84.17L52.81 83.84L52.48 83.35L52.36 82.75L52.48 82.15L52.81 81.66L53.3 81.33L53.9 81.21L54.5 81.33L54.99 81.66L55.32 82.15L55.44 82.75L55.44 82.75Z" fill="none" stroke="#b4b9c2" stroke-width="0.4" stroke-linecap="round" stroke-linejoin="round"/>
<path d="M157.64 82.75L157.52 83.35L157.19 83.84L156.7 84.17L156.1 84.29L155.5 84.17L155.01 83.84L154.68 83.35L154.56 82.75L154.68 82.15L155.01 81.66L155.5 81.33L156.1 81.21L156.7 81.33L157.19 81.66L157.52 82.15L157.64 82.75L157.64 82.75Z" fill="none" stroke="#b4b9c2" stroke-width="0.4" stroke-linecap="round" stroke-linejoin="round"/>
<path d="M48.86 85.9L48.76 86.39L48.49 86.79L48.09 87.06L47.6 87.16L47.11 87.06L46.71 86.79L46.44 86.39L46.34 85.9L46.44 85.41L46.71 85.01L47.11 84.74L47.6 84.64L48.09 84.74L48.49 85.01L48.76 85.41L48.86 85.9L48.86 85.9Z" fill="none" stroke="#b4b9c2" stroke-width="0.4" stroke-linecap="round" stroke-linejoin="round"/>
<path d="M163.66 85.9L163.56 86.39L163.29 86.79L162.89 87.06L162.4 87.16L161.91 87.06L161.51 86.79L161.24 86.39L161.14 85.9L161.24 85.41L161.51 85.01L161.91 84.74L162.4 84.64L162.89 84.74L163.29 85.01L163.56 85.41L163.66 85.9L163.66 85.9Z" fill="none" stroke="#b4b9c2" stroke-width="0.4" stroke-linecap="round" stroke-linejoin="round"/>
<rect x="12" y="153" width="186" height="123" fill="none" stroke="#e3e6eb" stroke-width="0.25"/>
<text x="15" y="158.5" font-family="Helvetica,Arial,sans-serif" font-size="3.2" fill="#1f2a44" text-anchor="start" font-weight="700">Your turn</text>
<path d="M47.6 211.9L48.11 211.25L48.65 210.61L49.21 210L49.8 209.4L50.42 208.81L51.06 208.25L51.72 207.7L52.41 207.17L53.12 206.66L53.86 206.16L54.61 205.69L55.39 205.23L56.18 204.79L56.99 204.37L57.82 203.98L58.66 203.6L59.53 203.24L60.4 202.9L61.29 202.59L62.2 202.29L63.11 202.02L64.04 201.76L64.98 201.53L65.93 201.32L66.89 201.14L67.86 200.97L68.84 200.83L69.82 200.71L70.81 200.61L71.8 200.54L72.8 200.49L73.8 200.47L74.8 200.47L75.81 200.49L76.81 200.54L77.82 200.62L78.83 200.71L79.83 200.84L80.84 200.99L81.84 201.17L82.83 201.37L83.82 201.6L84.81 201.86L85.79 202.14L86.76 202.45L87.73 202.79L88.68 203.15L89.63 203.55L90.56 203.97L91.49 204.42L92.4 204.9" fill="none" stroke="#b8bdc4" stroke-width="0.3" stroke-linecap="round" stroke-linejoin="round"/>
<path d="M162.4 211.9L161.89 211.25L161.35 210.61L160.79 210L160.2 209.4L159.58 208.81L158.94 208.25L158.28 207.7L157.59 207.17L156.88 206.66L156.14 206.16L155.39 205.69L154.61 205.23L153.82 204.79L153.01 204.37L152.18 203.98L151.34 203.6L150.47 203.24L149.6 202.9L148.71 202.59L147.8 202.29L146.89 202.02L145.96 201.76L145.02 201.53L144.07 201.32L143.11 201.14L142.14 200.97L141.16 200.83L140.18 200.71L139.19 200.61L138.2 200.54L137.2 200.49L136.2 200.47L135.2 200.47L134.19 200.49L133.19 200.54L132.18 200.62L131.17 200.71L130.17 200.84L129.16 200.99L128.16 201.17L127.17 201.37L126.18 201.6L125.19 201.86L124.21 202.14L123.24 202.45L122.27 202.79L121.32 203.15L120.37 203.55L119.44 203.97L118.51 204.42L117.6 204.9" fill="none" stroke="#b8bdc4" stroke-width="0.3" stroke-linecap="round" stroke-linejoin="round"/>
<path d="M49 228.7L49.5 228.07L50.04 227.45L50.6 226.87L51.2 226.3L51.82 225.76L52.48 225.25L53.16 224.75L53.86 224.29L54.59 223.84L55.35 223.42L56.12 223.03L56.91 222.66L57.73 222.31L58.56 221.99L59.41 221.7L60.27 221.43L61.15 221.18L62.04 220.96L62.94 220.77L63.85 220.6L64.78 220.45L65.7 220.33L66.64 220.24L67.58 220.18L68.53 220.14L69.47 220.13L70.42 220.14L71.37 220.18L72.32 220.24L73.27 220.34L74.21 220.46L75.15 220.6L76.08 220.78L77.01 220.98L77.93 221.21L78.83 221.47L79.73 221.75L80.61 222.06L81.48 222.4L82.34 222.77L83.18 223.16L84 223.59L84.81 224.04L85.59 224.52L86.35 225.03L87.09 225.57L87.81 226.13L88.5 226.73L89.17 227.35L89.81 228.01L90.42 228.69L91 229.4L90.37 229.96L89.71 230.49L89.02 231.01L88.3 231.5L87.56 231.97L86.78 232.41L85.99 232.84L85.17 233.24L84.32 233.61L83.46 233.97L82.58 234.3L81.68 234.61L80.77 234.89L79.83 235.15L78.89 235.38L77.93 235.6L76.97 235.78L75.99 235.95L75 236.08L74.01 236.2L73.01 236.29L72.01 236.35L71.01 236.39L70 236.4L68.99 236.39L67.99 236.35L66.99 236.28L65.99 236.19L65 236.08L64.01 235.94L63.03 235.77L62.07 235.57L61.11 235.35L60.17 235.1L59.23 234.82L58.32 234.52L57.42 234.19L56.54 233.83L55.68 233.44L54.83 233.03L54.01 232.59L53.22 232.12L52.44 231.62L51.7 231.09L50.98 230.54L50.29 229.95L49.63 229.34L49 228.7L49 228.7Z" fill="none" stroke="#8d939c" stroke-width="0.45" stroke-linecap="round" stroke-linejoin="round"/>
<path d="M161 228.7L160.5 228.07L159.96 227.45L159.4 226.87L158.8 226.3L158.18 225.76L157.52 225.25L156.84 224.75L156.14 224.29L155.41 223.84L154.65 223.42L153.88 223.03L153.09 222.66L152.27 222.31L151.44 221.99L150.59 221.7L149.73 221.43L148.85 221.18L147.96 220.96L147.06 220.77L146.15 220.6L145.22 220.45L144.3 220.33L143.36 220.24L142.42 220.18L141.47 220.14L140.52 220.13L139.58 220.14L138.63 220.18L137.68 220.24L136.73 220.34L135.79 220.46L134.85 220.6L133.92 220.78L132.99 220.98L132.07 221.21L131.17 221.47L130.27 221.75L129.39 222.06L128.52 222.4L127.66 222.77L126.82 223.16L126 223.59L125.19 224.04L124.41 224.52L123.65 225.03L122.91 225.57L122.19 226.13L121.5 226.73L120.83 227.35L120.19 228.01L119.58 228.69L119 229.4L119.63 229.96L120.29 230.49L120.98 231.01L121.7 231.5L122.44 231.97L123.22 232.41L124.01 232.84L124.83 233.24L125.68 233.61L126.54 233.97L127.42 234.3L128.32 234.61L129.23 234.89L130.17 235.15L131.11 235.38L132.07 235.6L133.03 235.78L134.01 235.95L135 236.08L135.99 236.2L136.99 236.29L137.99 236.35L138.99 236.39L140 236.4L141.01 236.39L142.01 236.35L143.01 236.28L144.01 236.19L145 236.08L145.99 235.94L146.97 235.77L147.93 235.57L148.89 235.35L149.83 235.1L150.77 234.82L151.68 234.52L152.58 234.19L153.46 233.83L154.32 233.44L155.17 233.03L155.99 232.59L156.78 232.12L157.56 231.62L158.3 231.09L159.02 230.54L159.71 229.95L160.37 229.34L161 228.7L161 228.7Z" fill="none" stroke="#8d939c" stroke-width="0.45" stroke-linecap="round" stroke-linejoin="round"/>
<path d="M50.4 224.5L50.91 223.77L51.45 223.07L52.02 222.4L52.62 221.76L53.25 221.14L53.9 220.55L54.58 219.99L55.28 219.45L56 218.95L56.75 218.47L57.52 218.02L58.3 217.6L59.1 217.21L59.92 216.84L60.75 216.51L61.6 216.2L62.46 215.92L63.33 215.67L64.21 215.44L65.09 215.25L65.99 215.09L66.89 214.95L67.8 214.84L68.71 214.76L69.63 214.71L70.55 214.69L71.46 214.7L72.38 214.74L73.29 214.81L74.2 214.9L75.1 215.03L76 215.18L76.89 215.37L77.78 215.58L78.65 215.83L79.51 216.1L80.36 216.4L81.2 216.73L82.02 217.1L82.83 217.49L83.62 217.91L84.39 218.36L85.14 218.85L85.87 219.36L86.58 219.9L87.27 220.48L87.93 221.08L88.56 221.71L89.17 222.38L89.75 223.07L90.3 223.8" fill="none" stroke="#b8bdc4" stroke-width="0.3" stroke-linecap="round" stroke-linejoin="round"/>
<path d="M159.6 224.5L159.09 223.77L158.55 223.07L157.98 222.4L157.38 221.76L156.75 221.14L156.1 220.55L155.42 219.99L154.72 219.45L154 218.95L153.25 218.47L152.48 218.02L151.7 217.6L150.9 217.21L150.08 216.84L149.25 216.51L148.4 216.2L147.54 215.92L146.67 215.67L145.79 215.44L144.91 215.25L144.01 215.09L143.11 214.95L142.2 214.84L141.29 214.76L140.37 214.71L139.45 214.69L138.54 214.7L137.62 214.74L136.71 214.81L135.8 214.9L134.9 215.03L134 215.18L133.11 215.37L132.22 215.58L131.35 215.83L130.49 216.1L129.64 216.4L128.8 216.73L127.98 217.1L127.17 217.49L126.38 217.91L125.61 218.36L124.86 218.85L124.13 219.36L123.42 219.9L122.73 220.48L122.07 221.08L121.44 221.71L120.83 222.38L120.25 223.07L119.7 223.8" fill="none" stroke="#b8bdc4" stroke-width="0.3" stroke-linecap="round" stroke-linejoin="round"/>
<path d="M76.3 228L76.23 228.93L76.03 229.82L75.71 230.66L75.29 231.43L74.75 232.13L74.13 232.75L73.43 233.29L72.66 233.71L71.82 234.03L70.93 234.23L70 234.3L69.07 234.23L68.18 234.03L67.34 233.71L66.57 233.29L65.87 232.75L65.25 232.13L64.71 231.43L64.29 230.66L63.97 229.82L63.77 228.93L63.7 228L63.77 227.07L63.97 226.18L64.29 225.34L64.71 224.57L65.25 223.87L65.87 223.25L66.57 222.71L67.34 222.29L68.18 221.97L69.07 221.77L70 221.7L70.93 221.77L71.82 221.97L72.66 222.29L73.43 222.71L74.13 223.25L74.75 223.87L75.29 224.57L75.71 225.34L76.03 226.18L76.23 227.07L76.3 228L76.3 228Z" fill="none" stroke="#b8bdc4" stroke-width="0.3" stroke-linecap="round" stroke-linejoin="round"/>
<path d="M146.3 228L146.23 228.93L146.03 229.82L145.71 230.66L145.29 231.43L144.75 232.13L144.13 232.75L143.43 233.29L142.66 233.71L141.82 234.03L140.93 234.23L140 234.3L139.07 234.23L138.18 234.03L137.34 233.71L136.57 233.29L135.87 232.75L135.25 232.13L134.71 231.43L134.29 230.66L133.97 229.82L133.77 228.93L133.7 228L133.77 227.07L133.97 226.18L134.29 225.34L134.71 224.57L135.25 223.87L135.87 223.25L136.57 222.71L137.34 222.29L138.18 221.97L139.07 221.77L140 221.7L140.93 221.77L141.82 221.97L142.66 222.29L143.43 222.71L144.13 223.25L144.75 223.87L145.29 224.57L145.71 225.34L146.03 226.18L146.23 227.07L146.3 228L146.3 228Z" fill="none" stroke="#b8bdc4" stroke-width="0.3" stroke-linecap="round" stroke-linejoin="round"/>
<path d="M100.1 235.7L100 237.27L99.88 238.79L99.76 240.24L99.63 241.64L99.5 242.99L99.36 244.27L99.22 245.5L99.07 246.67L98.92 247.79L98.77 248.84L98.63 249.84L98.48 250.79L98.33 251.67L98.18 252.5L98.04 253.27L97.9 253.99L97.77 254.64L97.64 255.24L97.52 255.79L97.4 256.27L97.3 256.7" fill="none" stroke="#b8bdc4" stroke-width="0.3" stroke-linecap="round" stroke-linejoin="round"/>
<path d="M109.9 235.7L110 237.27L110.12 238.79L110.24 240.24L110.37 241.64L110.5 242.99L110.64 244.27L110.78 245.5L110.93 246.67L111.08 247.79L111.23 248.84L111.37 249.84L111.52 250.79L111.67 251.67L111.82 252.5L111.96 253.27L112.1 253.99L112.23 254.64L112.36 255.24L112.48 255.79L112.6 256.27L112.7 256.7" fill="none" stroke="#b8bdc4" stroke-width="0.3" stroke-linecap="round" stroke-linejoin="round"/>
<path d="M30.8 168.5L30.76 169.39L30.72 170.29L30.68 171.19L30.65 172.11L30.61 173.03L30.59 173.97L30.56 174.91L30.54 175.85L30.52 176.81L30.5 177.77L30.48 178.75L30.47 179.72L30.46 180.71L30.46 181.7L30.46 182.7L30.46 183.7L30.46 184.72L30.47 185.73L30.48 186.76L30.49 187.78L30.5 188.82L30.52 189.86L30.54 190.9L30.57 191.95L30.59 193L30.62 194.06L30.66 195.12L30.69 196.19L30.73 197.26L30.77 198.33L30.82 199.41L30.87 200.49L30.92 201.57L30.97 202.66L31.03 203.75L31.09 204.84L31.16 205.93L31.23 207.03L31.3 208.13L31.37 209.22L31.45 210.32L31.53 211.43L31.61 212.53L31.7 213.63L31.79 214.74L31.88 215.84L31.98 216.95L32.08 218.05L32.18 219.16L32.28 220.26L32.39 221.37L32.51 222.47L32.62 223.57L32.74 224.68L32.86 225.78L32.99 226.87L33.12 227.97L33.25 229.07L33.39 230.16L33.53 231.25L33.67 232.34L33.81 233.43L33.96 234.51L34.12 235.59L34.27 236.67L34.43 237.74L34.6 238.81L34.76 239.88L34.93 240.94L35.11 242L35.28 243.05L35.46 244.1L35.65 245.14L35.84 246.18L36.03 247.22L36.22 248.24L36.42 249.27L36.62 250.28L36.83 251.3L37.03 252.3L37.25 253.3L37.46 254.29L37.68 255.28L37.91 256.25L38.13 257.23L38.36 258.19L38.6 259.15L38.83 260.09L39.08 261.03L39.32 261.97L39.57 262.89L39.82 263.81L40.08 264.71L40.34 265.61L40.6 266.5" fill="none" stroke="#8d939c" stroke-width="0.45" stroke-linecap="round" stroke-linejoin="round"/>
<path d="M179.2 168.5L179.24 169.39L179.28 170.29L179.32 171.19L179.35 172.11L179.39 173.03L179.41 173.97L179.44 174.91L179.46 175.85L179.48 176.81L179.5 177.77L179.52 178.75L179.53 179.72L179.54 180.71L179.54 181.7L179.54 182.7L179.54 183.7L179.54 184.72L179.53 185.73L179.52 186.76L179.51 187.78L179.5 188.82L179.48 189.86L179.46 190.9L179.43 191.95L179.41 193L179.38 194.06L179.34 195.12L179.31 196.19L179.27 197.26L179.23 198.33L179.18 199.41L179.13 200.49L179.08 201.57L179.03 202.66L178.97 203.75L178.91 204.84L178.84 205.93L178.77 207.03L178.7 208.13L178.63 209.22L178.55 210.32L178.47 211.43L178.39 212.53L178.3 213.63L178.21 214.74L178.12 215.84L178.02 216.95L177.92 218.05L177.82 219.16L177.72 220.26L177.61 221.37L177.49 222.47L177.38 223.57L177.26 224.68L177.14 225.78L177.01 226.87L176.88 227.97L176.75 229.07L176.61 230.16L176.47 231.25L176.33 232.34L176.19 233.43L176.04 234.51L175.88 235.59L175.73 236.67L175.57 237.74L175.4 238.81L175.24 239.88L175.07 240.94L174.89 242L174.72 243.05L174.54 244.1L174.35 245.14L174.16 246.18L173.97 247.22L173.78 248.24L173.58 249.27L173.38 250.28L173.17 251.3L172.97 252.3L172.75 253.3L172.54 254.29L172.32 255.28L172.09 256.25L171.87 257.23L171.64 258.19L171.4 259.15L171.17 260.09L170.92 261.03L170.68 261.97L170.43 262.89L170.18 263.81L169.92 264.71L169.66 265.61L169.4 266.5" fill="none" stroke="#8d939c" stroke-width="0.45" stroke-linecap="round" stroke-linejoin="round"/>
<path d="M44.8 228.7L45.23 227.93L45.69 227.18L46.17 226.45L46.66 225.75L47.19 225.06L47.73 224.39L48.29 223.75L48.87 223.12L49.47 222.52L50.09 221.94L50.73 221.38L51.38 220.84L52.05 220.33L52.73 219.83L53.43 219.36L54.14 218.9L54.87 218.47L55.61 218.06L56.36 217.68L57.12 217.31L57.89 216.97L58.67 216.65L59.47 216.35L60.27 216.07L61.08 215.82L61.9 215.59L62.72 215.38L63.55 215.19L64.38 215.03L65.22 214.89L66.07 214.77L66.92 214.67L67.77 214.6L68.62 214.55L69.47 214.52L70.33 214.52L71.19 214.54L72.04 214.58L72.89 214.65L73.75 214.74L74.6 214.85L75.44 214.99L76.29 215.15L77.12 215.34L77.96 215.54L78.79 215.78L79.61 216.03L80.42 216.31L81.23 216.62L82.02 216.94L82.81 217.3L83.59 217.67L84.36 218.08L85.12 218.5L85.86 218.95L86.6 219.43L87.32 219.93L88.03 220.45L88.72 221L89.4 221.57L90.06 222.17L90.7 222.8L91.33 223.45L91.94 224.12L92.54 224.82L93.11 225.54L93.66 226.3L94.2 227.07L94.71 227.87L95.2 228.7L94.67 229.4L94.12 230.08L93.54 230.74L92.93 231.38L92.31 232L91.66 232.6L91 233.18L90.31 233.74L89.6 234.28L88.88 234.8L88.13 235.3L87.37 235.77L86.6 236.23L85.81 236.66L85 237.07L84.18 237.46L83.35 237.84L82.51 238.18L81.66 238.51L80.79 238.82L79.92 239.1L79.04 239.36L78.15 239.6L77.25 239.82L76.35 240.02L75.44 240.19L74.53 240.34L73.62 240.47L72.7 240.58L71.78 240.66L70.86 240.73L69.94 240.76L69.01 240.78L68.1 240.77L67.18 240.74L66.26 240.69L65.35 240.61L64.45 240.52L63.55 240.39L62.66 240.25L61.77 240.08L60.89 239.88L60.02 239.67L59.16 239.43L58.31 239.16L57.47 238.87L56.65 238.56L55.84 238.22L55.04 237.86L54.25 237.47L53.48 237.06L52.73 236.63L51.99 236.17L51.28 235.69L50.58 235.18L49.9 234.64L49.24 234.08L48.6 233.5L47.99 232.89L47.39 232.26L46.82 231.6L46.28 230.91L45.76 230.2L45.27 229.46L44.8 228.7L44.8 228.7Z" fill="none" stroke="#c0392b" stroke-width="0.35" stroke-linecap="round" stroke-linejoin="round" stroke-dasharray="0.6 1.2"/>
<path d="M165.2 228.7L164.77 227.93L164.31 227.18L163.83 226.45L163.34 225.75L162.81 225.06L162.27 224.39L161.71 223.75L161.13 223.12L160.53 222.52L159.91 221.94L159.27 221.38L158.62 220.84L157.95 220.33L157.27 219.83L156.57 219.36L155.86 218.9L155.13 218.47L154.39 218.06L153.64 217.68L152.88 217.31L152.11 216.97L151.33 216.65L150.53 216.35L149.73 216.07L148.92 215.82L148.1 215.59L147.28 215.38L146.45 215.19L145.62 215.03L144.78 214.89L143.93 214.77L143.08 214.67L142.23 214.6L141.38 214.55L140.52 214.52L139.67 214.52L138.81 214.54L137.96 214.58L137.11 214.65L136.25 214.74L135.4 214.85L134.56 214.99L133.71 215.15L132.88 215.34L132.04 215.54L131.21 215.78L130.39 216.03L129.58 216.31L128.77 216.62L127.98 216.94L127.19 217.3L126.41 217.67L125.64 218.08L124.88 218.5L124.14 218.95L123.4 219.43L122.68 219.93L121.97 220.45L121.28 221L120.6 221.57L119.94 222.17L119.3 222.8L118.67 223.45L118.06 224.12L117.46 224.82L116.89 225.54L116.34 226.3L115.8 227.07L115.29 227.87L114.8 228.7L115.33 229.4L115.88 230.08L116.46 230.74L117.07 231.38L117.69 232L118.34 232.6L119 233.18L119.69 233.74L120.4 234.28L121.12 234.8L121.87 235.3L122.63 235.77L123.4 236.23L124.19 236.66L125 237.07L125.82 237.46L126.65 237.84L127.49 238.18L128.34 238.51L129.21 238.82L130.08 239.1L130.96 239.36L131.85 239.6L132.75 239.82L133.65 240.02L134.56 240.19L135.47 240.34L136.38 240.47L137.3 240.58L138.22 240.66L139.14 240.73L140.06 240.76L140.99 240.78L141.9 240.77L142.82 240.74L143.74 240.69L144.65 240.61L145.55 240.52L146.45 240.39L147.34 240.25L148.23 240.08L149.11 239.88L149.98 239.67L150.84 239.43L151.69 239.16L152.53 238.87L153.35 238.56L154.16 238.22L154.96 237.86L155.75 237.47L156.52 237.06L157.27 236.63L158.01 236.17L158.72 235.69L159.42 235.18L160.1 234.64L160.76 234.08L161.4 233.5L162.01 232.89L162.61 232.26L163.18 231.6L163.72 230.91L164.24 230.2L164.73 229.46L165.2 228.7L165.2 228.7Z" fill="none" stroke="#c0392b" stroke-width="0.35" stroke-linecap="round" stroke-linejoin="round" stroke-dasharray="0.6 1.2"/>
<circle cx="35" cy="216.1" r="0.8" fill="#9aa1ad"/>
<circle cx="175" cy="216.1" r="0.8" fill="#9aa1ad"/>
<circle cx="51.8" cy="189.5" r="0.8" fill="#9aa1ad"/>
<circle cx="158.2" cy="189.5" r="0.8" fill="#9aa1ad"/>
<circle cx="88.2" cy="216.8" r="0.8" fill="#9aa1ad"/>
<circle cx="121.8" cy="216.8" r="0.8" fill="#9aa1ad"/>
<circle cx="37.1" cy="221.7" r="0.8" fill="#9aa1ad"/>
<circle cx="172.9" cy="221.7" r="0.8" fill="#9aa1ad"/>
<text x="12" y="278" font-family="Helvetica,Arial,sans-serif" font-size="2.5" fill="#c0392b" text-anchor="start">Liner, crease, brow-bone color and dots: eye-safe products. Chevrons, dot trails and gems: outside the eye area only.</text>
</svg>
